<?xml version="1.0" encoding="UTF-8" standalone="no"?>
<!-- Created with Inkscape (http://www.inkscape.org/) -->

<svg
   width="57.43px"
   height="43px"
   viewBox="0 0 60.724232 64.293365"
   version="1.1"
   id="svg5"
   inkscape:version="1.2 (dc2aedaf03, 2022-05-15)"
   sodipodi:docname="лого для практикт.svg"
   inkscape:export-filename="логоактикт.svg"
   inkscape:export-xdpi="9.6205416"
   inkscape:export-ydpi="9.6205416"
   xmlns:inkscape="http://www.inkscape.org/namespaces/inkscape"
   xmlns:sodipodi="http://sodipodi.sourceforge.net/DTD/sodipodi-0.dtd"
   xmlns:xlink="http://www.w3.org/1999/xlink"
   xmlns="http://www.w3.org/2000/svg"
   xmlns:svg="http://www.w3.org/2000/svg">
  <sodipodi:namedview
     id="namedview7"
     pagecolor="#ffffff"
     bordercolor="#000000"
     borderopacity="0.25"
     inkscape:showpageshadow="2"
     inkscape:pageopacity="0.0"
     inkscape:pagecheckerboard="0"
     inkscape:deskcolor="#d1d1d1"
     inkscape:document-units="mm"
     showgrid="false"
     inkscape:zoom="2"
     inkscape:cx="100.25"
     inkscape:cy="119.5"
     inkscape:window-width="1366"
     inkscape:window-height="745"
     inkscape:window-x="-8"
     inkscape:window-y="-8"
     inkscape:window-maximized="1"
     inkscape:current-layer="layer3" />
  <defs
     id="defs2">
    <linearGradient
       inkscape:collect="always"
       id="linearGradient15732">
      <stop
         style="stop-color:#d9cba3;stop-opacity:1;"
         offset="0"
         id="stop15728" />
      <stop
         style="stop-color:#cdbb86;stop-opacity:1;"
         offset="1"
         id="stop15730" />
    </linearGradient>
    <linearGradient
       inkscape:collect="always"
       id="linearGradient15412">
      <stop
         style="stop-color:#023859;stop-opacity:1;"
         offset="0"
         id="stop15408" />
      <stop
         style="stop-color:#0378a6;stop-opacity:1;"
         offset="1"
         id="stop15410" />
    </linearGradient>
    <linearGradient
       inkscape:collect="always"
       id="linearGradient15266">
      <stop
         style="stop-color:#023859;stop-opacity:1;"
         offset="0"
         id="stop15262" />
      <stop
         style="stop-color:#b0e8fd;stop-opacity:1;"
         offset="1"
         id="stop15264" />
    </linearGradient>
    <linearGradient
       inkscape:collect="always"
       id="linearGradient13789">
      <stop
         style="stop-color:#e3e8eb;stop-opacity:1;"
         offset="0"
         id="stop13785" />
      <stop
         style="stop-color:#d9cba3;stop-opacity:1;"
         offset="1"
         id="stop13787" />
    </linearGradient>
    <linearGradient
       inkscape:collect="always"
       id="linearGradient13083">
      <stop
         style="stop-color:#d9cba3;stop-opacity:1;"
         offset="0"
         id="stop13079" />
      <stop
         style="stop-color:#e3e8eb;stop-opacity:1;"
         offset="1"
         id="stop13081" />
    </linearGradient>
    <linearGradient
       inkscape:collect="always"
       id="linearGradient11655">
      <stop
         style="stop-color:#023859;stop-opacity:1;"
         offset="0"
         id="stop11651" />
      <stop
         style="stop-color:#c5e9fc;stop-opacity:1;"
         offset="1"
         id="stop11653" />
    </linearGradient>
    <linearGradient
       inkscape:collect="always"
       id="linearGradient8236">
      <stop
         style="stop-color:#023859;stop-opacity:1;"
         offset="0"
         id="stop8232" />
      <stop
         style="stop-color:#c5e9fc;stop-opacity:1;"
         offset="1"
         id="stop8234" />
    </linearGradient>
    <linearGradient
       inkscape:collect="always"
       id="linearGradient8214">
      <stop
         style="stop-color:#c5e9fc;stop-opacity:1;"
         offset="0.19491528"
         id="stop8210" />
      <stop
         style="stop-color:#023859;stop-opacity:1;"
         offset="1"
         id="stop8212" />
    </linearGradient>
    <linearGradient
       inkscape:collect="always"
       id="linearGradient8206">
      <stop
         style="stop-color:#023859;stop-opacity:1;"
         offset="0"
         id="stop8202" />
      <stop
         style="stop-color:#c5e9fc;stop-opacity:1;"
         offset="1"
         id="stop8204" />
    </linearGradient>
    <linearGradient
       inkscape:collect="always"
       id="linearGradient6672">
      <stop
         style="stop-color:#d9cba3;stop-opacity:1;"
         offset="0"
         id="stop6668" />
      <stop
         style="stop-color:#e3e8eb;stop-opacity:1;"
         offset="1"
         id="stop6670" />
    </linearGradient>
    <linearGradient
       inkscape:collect="always"
       id="linearGradient6595">
      <stop
         style="stop-color:#023859;stop-opacity:1;"
         offset="0"
         id="stop6591" />
      <stop
         style="stop-color:#c5e9fc;stop-opacity:1;"
         offset="1"
         id="stop6593" />
    </linearGradient>
    <linearGradient
       inkscape:collect="always"
       xlink:href="#linearGradient6595"
       id="linearGradient6597"
       x1="94.613464"
       y1="44.615402"
       x2="102.25782"
       y2="30.327902"
       gradientUnits="userSpaceOnUse" />
    <linearGradient
       inkscape:collect="always"
       xlink:href="#linearGradient6672"
       id="linearGradient6674"
       x1="98.139282"
       y1="80.546997"
       x2="104.71324"
       y2="77.970627"
       gradientUnits="userSpaceOnUse" />
    <linearGradient
       inkscape:collect="always"
       xlink:href="#linearGradient8206"
       id="linearGradient8208"
       x1="95.092339"
       y1="52.487637"
       x2="122.73759"
       y2="22.060556"
       gradientUnits="userSpaceOnUse" />
    <linearGradient
       inkscape:collect="always"
       xlink:href="#linearGradient8214"
       id="linearGradient8216"
       x1="97.671494"
       y1="42.254902"
       x2="104.31801"
       y2="67.324791"
       gradientUnits="userSpaceOnUse" />
    <linearGradient
       inkscape:collect="always"
       xlink:href="#linearGradient8236"
       id="linearGradient8238"
       x1="56.669197"
       y1="38.772968"
       x2="101.7625"
       y2="38.772968"
       gradientUnits="userSpaceOnUse" />
    <linearGradient
       inkscape:collect="always"
       xlink:href="#linearGradient11655"
       id="linearGradient11657"
       x1="83.355736"
       y1="36.967422"
       x2="99.656654"
       y2="52.180965"
       gradientUnits="userSpaceOnUse" />
    <linearGradient
       inkscape:collect="always"
       xlink:href="#linearGradient13083"
       id="linearGradient13085"
       x1="102.65031"
       y1="72.287193"
       x2="104.31241"
       y2="77.77713"
       gradientUnits="userSpaceOnUse" />
    <linearGradient
       inkscape:collect="always"
       xlink:href="#linearGradient13789"
       id="linearGradient13791"
       x1="104.2953"
       y1="77.709732"
       x2="108.88887"
       y2="81.030891"
       gradientUnits="userSpaceOnUse" />
    <linearGradient
       inkscape:collect="always"
       xlink:href="#linearGradient15266"
       id="linearGradient15268"
       x1="104.75273"
       y1="66.926567"
       x2="97.981392"
       y2="78.502083"
       gradientUnits="userSpaceOnUse" />
    <linearGradient
       inkscape:collect="always"
       xlink:href="#linearGradient15412"
       id="linearGradient15414"
       x1="105.55836"
       y1="66.721855"
       x2="104.05373"
       y2="72.608833"
       gradientUnits="userSpaceOnUse" />
    <linearGradient
       inkscape:collect="always"
       xlink:href="#linearGradient15732"
       id="linearGradient15734"
       x1="103.24246"
       y1="64.208893"
       x2="106.24102"
       y2="64.208893"
       gradientUnits="userSpaceOnUse" />
  </defs>
  <g
     inkscape:groupmode="layer"
     id="layer2"
     inkscape:label="Слой 2"
     style="display:inline"
     transform="translate(-62.939401,-21.115295)">
    <path
       id="path1160"
       style="fill:url(#linearGradient8238);fill-opacity:1;stroke-width:0.524133"
       d="m 56.941902,31.501036 c -0.178444,0.79061 -0.269612,1.589561 -0.272706,2.389851 -10e-5,8.660909 10.094377,15.682017 22.546639,15.682078 12.452398,-5.1e-5 22.546945,-7.021299 22.546665,-15.682303 -0.003,-2.072232 -0.48776,-4.00592 -1.63732,-5.917693 -6.964853,5.998851 -16.1099,8.266048 -25.190509,8.559838 -7.524561,0.242174 -14.047695,-1.582054 -17.992769,-5.031771 z"
       transform="matrix(0.98704133,0.16046624,0.21382843,0.97687123,0,0)"
       sodipodi:nodetypes="ccccccc" />
    <path
       id="path1363"
       style="display:inline;fill:url(#linearGradient6597);fill-opacity:1;stroke-width:0.222766"
       d="m 99.944231,27.185417 c 0.279069,0.15974 0.547989,0.359297 0.804409,0.596922 2.77013,2.585921 3.53348,8.999692 1.70499,14.325551 -1.91995,5.326803 -7.555066,10.130302 -9.559958,5.858141 0.779454,-2.872557 4.590465,-7.786654 6.01784,-11.582717 1.182378,-3.14595 1.556778,-6.480573 1.032719,-9.197897 z"
       sodipodi:nodetypes="cccccc" />
    <path
       id="path1359"
       style="display:inline;fill:url(#linearGradient11657);fill-opacity:1;stroke-width:0.222766"
       d="m 83.253196,31.851541 c -0.165183,0.275884 -0.302029,0.581524 -0.409339,0.914242 -1.150073,3.610807 1.32329,9.577517 5.524409,13.327014 4.201179,3.749488 10.23329,4.242186 9.812283,0.89581 -0.973603,-2.033301 -7.250009,-5.690053 -9.525119,-7.621501 -2.570783,-2.164737 -4.52932,-4.889444 -5.402234,-7.515565 z"
       sodipodi:nodetypes="cccccc" />
    <path
       id="path1361"
       style="display:inline;fill:url(#linearGradient8208);fill-opacity:1;stroke-width:0.505428"
       d="m 121.43868,21.115295 c 0.43528,0.603039 0.81157,1.274943 1.12558,2.009825 3.37442,7.976466 -1.32016,21.750959 -9.96856,30.249089 -4.62061,5.300817 -10.41868,7.20849 -10.79333,3.211119 -0.19059,-2.033573 -7.41748,-5.659637 -10.414205,-8.467532 6.648466,-0.242033 12.589965,-3.659276 19.179965,-9.754605 5.46025,-5.052013 9.40128,-11.305097 10.87055,-17.247893 z"
       sodipodi:nodetypes="sccsccss" />
    <circle
       style="fill:url(#linearGradient8216);fill-opacity:1;stroke-width:0.264583"
       id="path1092"
       cx="102.9592"
       cy="58.99934"
       r="6.4102135" />
  </g>
  <g
     inkscape:label="Слой 1"
     inkscape:groupmode="layer"
     id="layer1"
     style="display:none;fill:#999999"
     transform="translate(-61.583243,-23.052663)"
     sodipodi:insensitive="true">
    <path
       style="fill:#999999;stroke-width:0.264583"
       id="path683"
       d="m 102.74911,66.214255 c -0.20973,0.634873 -0.4182,1.270283 -0.65088,1.897192 -0.006,-0.01077 -0.16033,0.390408 -0.16512,0.385455 -0.0183,-0.01884 1.1e-4,-0.08534 0.0242,-0.07489 0.26075,0.113141 0.47789,0.320648 0.74776,0.409847 0.0501,0.01656 0.0105,-0.105005 0.0157,-0.157509 0.098,-0.614516 0.30345,-1.206177 0.51082,-1.79093 0.12739,-0.321363 0.23287,-0.653325 0.39659,-0.958919 0.007,-0.01307 0.0357,-0.0781 0.0563,-0.08947 0.0225,-0.01243 0.0517,0.05366 0.0461,0.05081 -0.66613,-0.33951 -0.88439,-0.584697 -0.60265,-0.291589 0.27933,0.341733 0.53823,0.699847 0.79392,1.059463 0.14093,0.198374 0.28633,0.394642 0.38042,0.620215 0.0721,0.160533 0.26441,0.240001 0.4004,0.344657 0,0 0.0711,0.03673 0.0711,0.03673 v 0 c 0.0811,0.01558 0.3795,0.146783 0.32414,-0.01474 -0.10048,-0.24221 -0.25448,-0.453712 -0.41686,-0.658243 -0.25791,-0.349118 -0.51354,-0.70004 -0.76509,-1.053735 -0.23633,-0.323628 -0.81798,-0.887804 -1.04764,-0.431654 -0.11605,0.332401 -0.24193,0.661339 -0.33525,1.001498 -0.18848,0.591253 -0.38654,1.17952 -0.56049,1.775269 -0.13723,0.43239 -0.11605,0.200374 0.68657,0.715725 0.039,0.02506 0.0607,-0.152744 0.0958,-0.283562 0.0181,-0.06733 0.0386,-0.134001 0.0579,-0.200999 0.18811,-0.640551 0.3781,-1.282179 0.64733,-1.894628 0,0 -0.71103,-0.395981 -0.71103,-0.395981 z" />
    <path
       style="fill:#999999;stroke-width:0.264583"
       id="path685"
       d="m 103.28017,69.295931 c 0.47156,-0.05563 0.93678,-0.154734 1.40319,-0.242684 0.24141,-0.03935 0.0872,-0.18891 0.003,-0.312214 0,0 -0.0656,-0.04585 -0.0656,-0.04585 v 0 c -0.22221,-0.0924 -0.44885,-0.22546 -0.69739,-0.170958 -0.44893,0.0999 -0.90025,0.190995 -1.35354,0.268277 0,0 0.71036,0.503428 0.71036,0.503428 z" />
    <path
       style="fill:#999999;stroke-width:0.264583"
       id="path687"
       d="m 102.81087,69.166642 c 0.23624,0.230669 0.48455,0.444921 0.76258,0.623321 0.10157,-1.127961 0.88693,0.915909 1.27207,0.640559 0.0996,-0.219853 0.13633,-0.471387 0.20328,-0.705501 0.0724,-0.243474 0.17206,-0.477435 0.26363,-0.713885 -0.0144,-0.127683 -0.20339,-0.2061 -0.29849,-0.268975 0,0 -0.28705,-0.122333 -0.28705,-0.122333 v 0 c -0.074,-0.04402 -0.23587,-0.187931 -0.32109,-0.109696 -0.0768,0.245543 -0.15102,0.491979 -0.23258,0.736118 -0.0571,0.181509 -0.13049,0.430353 -0.19644,0.57931 -0.28391,-0.218125 -1.08887,-0.394972 0.58857,0.34816 -0.28408,-0.166507 -0.54627,-0.36219 -0.77311,-0.602694 0,0 -0.98137,-0.404384 -0.98137,-0.404384 z" />
    <path
       style="fill:#999999;stroke-width:0.264583"
       id="path697"
       d="m 95.976986,78.88189 c -0.295603,0.170821 -0.873625,0.26153 0.0535,0.508844 0.07225,0.01931 0.129084,-0.07574 0.19379,-0.11332 0.102947,-0.0598 0.20613,-0.119202 0.309185,-0.178802 0.918565,-0.548485 1.851642,-1.071618 2.800922,-1.564974 0.41003,-0.179824 0.785667,-0.434396 1.198737,-0.605972 0.62529,-0.167438 1.28257,-0.138502 1.92335,-0.116461 0.81954,0.03211 1.63729,0.09008 2.45338,0.170694 0.0528,-0.03898 0.38405,0.10225 0.43834,0.01004 0.0183,-0.03107 -0.0229,-0.06917 -0.0253,-0.105156 0,0 -0.0631,-0.04918 -0.0631,-0.04918 v 0 c -0.25375,-0.110554 -0.48563,-0.208983 -0.77245,-0.185227 -0.80509,-0.03858 -1.60963,-0.08634 -2.41402,-0.137747 -0.66643,-0.02689 -1.34764,-0.07374 -2.00184,0.08597 -0.407217,0.161802 -0.746467,0.453449 -1.130297,0.661576 -0.92185,0.548002 -1.852842,1.084295 -2.819324,1.550344 -0.113128,0.05177 -0.224728,0.10701 -0.339375,0.155333 -0.07243,0.03052 -0.251015,0.0083 -0.221318,0.08101 0.238838,0.585115 0.480194,0.222357 0.753902,0.06628 0,0 -0.33808,-0.23328 -0.33808,-0.23328 z" />
    <path
       id="path703"
       style="fill:#999999;stroke-width:0.264583"
       d="m 100.40968,76.372717 0.31713,0.342731 c 1.00243,0.303426 2.025,0.534598 3.03732,0.802389 1.01373,0.272884 2.02756,0.544781 3.0512,0.778137 0.44665,0.0889 0.8957,0.163969 1.34074,0.260959 0.16751,0.03907 0.33366,0.08366 0.4998,0.128175 0.0285,0.0102 0.0715,0.01765 0.0962,0.02238 l -0.44837,-0.475476 c -0.0305,-0.01075 -0.0644,-0.01696 -0.0971,-0.02354 -0.16021,-0.03479 -0.31932,-0.074 -0.48081,-0.102645 -0.43071,-0.06411 -0.86025,-0.137909 -1.28981,-0.2091 -0.99965,-0.187498 -1.98628,-0.434871 -2.96916,-0.695365 -1.02085,-0.268982 -2.04568,-0.526325 -3.05721,-0.828615 z" />
    <path
       style="fill:#999999;stroke-width:0.264583"
       id="path706"
       d="m 108.14355,78.374159 c -0.89503,0.686193 -1.80186,1.355209 -2.73355,1.990759 -0.55859,0.350741 -1.09506,0.734766 -1.64447,1.098731 -0.10195,0.09112 0.0123,0.164117 0.0821,0.242113 0,0 0.0606,0.0523 0.0606,0.0523 v 0 c 0.0938,0.06458 0.16917,0.154966 0.27552,0.07637 0.48447,-0.434505 1.06889,-0.751004 1.57658,-1.155876 0.91844,-0.652555 1.86456,-1.271448 2.72077,-2.006386 0,0 -0.33748,-0.298017 -0.33748,-0.298017 z" />
    <path
       style="fill:#999999;stroke-width:0.264583"
       id="path708"
       d="m 96.267999,79.243517 c 1.199896,0.472205 2.417523,0.898137 3.628623,1.340842 1.133218,0.365869 2.223458,0.894752 3.385828,1.166945 0.17,0.06725 0.21635,0.04689 0.35881,3.56e-4 0,0 -0.0542,-0.0589 -0.0542,-0.0589 v 0 c -0.22421,-0.137448 -0.44408,-0.284651 -0.69744,-0.365118 -1.11411,-0.456569 -2.28964,-0.748255 -3.408578,-1.194358 -1.17097,-0.433975 -2.328909,-0.919833 -3.537617,-1.2398 0,0 0.324525,0.350021 0.324525,0.350021 z" />
    <path
       style="fill:#999999;stroke-width:0.264583"
       id="path710"
       d="m 96.1757,78.853318 c -0.409895,1.523701 -0.804581,3.051435 -1.238485,4.568791 -0.208966,0.734051 -0.454793,1.457507 -0.632877,2.20019 -0.07525,0.313968 -0.157884,0.612212 -0.125223,0.933011 0.01853,0.03595 0.03716,0.07196 0.05569,0.10792 0,0 0.06556,0.0839 0.06556,0.0839 v 0 c 0.03443,0.02224 0.06899,0.04445 0.103414,0.06663 0.03822,-0.01913 0.0889,-0.02327 0.114673,-0.05738 0.04363,-0.05785 0.249674,-0.603047 0.250835,-0.605875 0.246731,-0.728085 0.397252,-1.484629 0.614251,-2.221234 0.42622,-1.522919 0.956575,-3.023781 1.22946,-4.584594 0,0 -0.437031,-0.491278 -0.437031,-0.491278 z" />
    <path
       style="fill:#999999;stroke-width:0.264583"
       id="path712"
       d="m 95.948062,87.347465 c 1.042943,0.226462 2.09229,0.422205 3.1387,0.631919 0.84227,0.132334 1.659788,0.427353 2.510248,0.507417 0.0829,-0.01388 0.21795,0.04687 0.22497,-0.07056 0,0 -0.0655,-0.046 -0.0655,-0.046 v 0 c -0.19157,-0.06743 -0.38054,-0.140561 -0.57778,-0.191385 -0.84689,-0.236292 -1.717868,-0.371957 -2.576798,-0.556206 -1.056418,-0.209154 -2.112252,-0.421393 -3.164056,-0.65279 0,0 0.510164,0.37762 0.510164,0.37762 z" />
    <path
       style="fill:#999999;stroke-width:0.264583"
       id="path714"
       d="m 103.53988,81.625978 c -0.43428,1.054998 -0.62192,2.203001 -0.87971,3.312136 -0.26365,0.951876 -0.31015,1.941531 -0.33393,2.923338 -0.009,0.0277 -0.0173,0.05573 -0.0263,0.08343 0,0 0.0547,0.05836 0.0547,0.05836 v 0 c 0.009,-0.02779 0.0183,-0.05559 0.0264,-0.08376 0.46344,-0.690776 0.70891,-1.52872 0.90194,-2.326299 0.28404,-1.141784 0.66814,-2.281701 0.73742,-3.461362 0,0 -0.48068,-0.505908 -0.48068,-0.505908 z"
       inkscape:transform-center-x="-0.48312284"
       inkscape:transform-center-y="0.45992137" />
    <path
       style="fill:#999999;stroke-width:0.264583"
       id="path722"
       d="m 108.22601,79.280328 c -0.2703,0.75261 -0.47936,1.527057 -0.69818,2.296084 -0.2612,0.917959 -0.54029,1.829069 -0.69096,2.772599 -0.0842,0.300028 -0.0678,0.601757 -0.0758,0.905891 0,0 0.0552,0.05807 0.0552,0.05807 v 0 c 0.1453,-0.212485 0.2115,-0.443561 0.27747,-0.694747 0.30899,-0.880801 0.47709,-1.801819 0.7676,-2.689186 0.23193,-0.765097 0.46957,-1.528499 0.69435,-2.295732 0,0 -0.32946,-0.352942 -0.32946,-0.352942 z" />
    <path
       style="fill:#999999;stroke-width:0.264583"
       id="path724"
       d="m 103.80187,87.844408 c 0.66306,-0.417999 1.28552,-0.899772 1.91167,-1.370965 0.19679,-0.192375 0.51701,-0.306982 0.64708,-0.567277 0.12988,-0.259967 -0.0485,-0.05729 0.059,-0.170862 0,0 -0.0606,-0.05225 -0.0606,-0.05225 v 0 c -0.0959,0.09378 0.0457,-0.03135 -0.1791,0.06511 -0.26863,0.115283 -0.43994,0.379587 -0.67752,0.538312 -0.60995,0.496727 -1.24817,0.959424 -1.93811,1.340056 0,0 0.2376,0.217884 0.2376,0.217884 z" />
    <path
       style="fill:#999999;stroke-width:0.264583"
       id="path728"
       d="m 100.5927,76.655158 c 0.86514,-0.882638 1.50858,-1.949413 2.1505,-2.997446 0.54398,-0.914017 0.92432,-1.911715 1.45295,-2.832786 0,0 -0.0619,-0.05068 -0.0619,-0.05068 v 0 c -0.52035,0.906491 -1.11179,1.768041 -1.68116,2.644189 -0.65548,1.036688 -1.34067,2.061901 -2.21264,2.932781 0,0 0.35224,0.303948 0.35224,0.303948 z" />
    <path
       style="fill:#999999;stroke-width:0.264583"
       id="path730"
       d="m 104.32522,70.079905 c -0.02,0.09802 -0.0477,0.194819 -0.0589,0.294244 -0.0253,0.218543 -0.062,1.069875 -0.0686,1.226029 -0.0438,1.037797 -0.0795,2.075592 -0.10828,3.113908 -0.0553,1.240947 -0.0201,2.487076 -0.0746,3.727747 -0.0363,0.827168 -0.13409,1.657958 -0.20056,2.483607 0,0 0.064,0.0479 0.064,0.0479 v 0 c 0.0664,-0.824991 0.10655,-1.658895 0.20474,-2.4805 0.0434,-0.362734 0.11668,-0.721379 0.16372,-1.083653 0.0296,-0.227898 0.23613,-2.167496 0.25943,-2.38494 0.13323,-1.525515 0.29997,-3.060017 0.29383,-4.591299 0,0 -0.4746,-0.352995 -0.4746,-0.352995 z" />
    <path
       style="fill:#999999;stroke-width:0.264583"
       id="path732"
       d="m 104.81115,69.692021 c 0.39248,1.217256 0.73865,2.448165 1.12784,3.666731 0.44178,1.542267 1.11755,2.987678 1.85082,4.407553 0.24733,0.527683 0.13308,0.277371 0.34433,0.750202 0,0 0.0664,0.04463 0.0664,0.04463 v 0 c -0.21114,-0.472986 -0.0969,-0.222609 -0.34421,-0.750387 -0.61247,-1.387392 -1.15706,-2.806481 -1.62383,-4.249432 -0.36102,-1.213927 -0.66063,-2.446192 -1.08732,-3.640011 0,0 -0.33403,-0.2293 -0.33403,-0.2293 z" />
    <path
       style="fill:#999999;stroke-width:0.264583"
       id="path736"
       d="m 95.978785,79.075359 c 0.05871,-0.06644 0.11742,-0.132873 0.1761,-0.199314 0.113031,-0.111654 0.231792,-0.217732 0.338975,-0.334984 0.348227,-0.380963 0.667684,-0.787489 1.013941,-1.170236 0.442031,-0.488613 0.954011,-1.019742 1.406431,-1.4949 1.537398,-1.521621 3.001688,-3.111364 4.459518,-4.708173 0.4344,-0.4962 0.8069,-1.043325 1.23657,-1.542254 0,0 -0.061,-0.05186 -0.061,-0.05186 v 0 c -0.42993,0.499232 -0.91777,0.947957 -1.36319,1.433687 -1.44532,1.609831 -2.96723,3.147517 -4.512528,4.661167 -1.028538,1.019611 -2.060261,2.045449 -2.985214,3.159513 0,0 0.290319,0.247346 0.290319,0.247346 z" />
    <path
       style="fill:#999999;stroke-width:0.264583"
       id="path738"
       d="m 98.973683,66.470302 c 0.0497,0.02802 0.20262,0.103534 0.14901,0.08407 -0.0873,-0.03168 -0.15882,-0.108617 -0.25081,-0.121034 -0.13363,-0.01804 0.28475,0.192553 0.11742,0.251685 -0.24693,-0.14279 0.28677,0.166992 0.39701,0.20148 0.0511,0.01598 -0.0742,-0.07829 -0.10225,-0.123878 -0.0997,-0.161909 -0.0998,-0.309038 -0.0753,-0.489338 0.0782,-0.202827 0.25172,-0.36153 0.48456,-0.308057 0.0488,0.01122 0.18282,0.08188 0.13797,0.05956 -0.13076,-0.06508 -0.2639,-0.125275 -0.39585,-0.187913 0.24262,0.325678 0.26913,0.708933 0.0152,1.029298 -0.10007,0.05736 -0.12969,0.100388 -0.25294,0.06894 -0.0502,-0.01283 -0.18588,-0.09189 -0.13882,-0.07013 0.14356,0.06638 0.27131,0.18555 0.42839,0.204015 0.0691,0.0081 -0.0891,-0.10769 -0.12346,-0.168171 -0.0333,-0.05872 -0.052,-0.124603 -0.078,-0.186905 -0.0779,-0.368001 0.0947,-0.615418 0.47124,-0.600413 0.049,0.01545 0.18991,0.0744 0.1469,0.04635 -0.14527,-0.09473 -0.29538,-0.185846 -0.45706,-0.248613 -0.0482,-0.01873 0.0787,0.06925 0.10687,0.112665 0.0805,0.124058 0.0734,0.247134 0.0329,0.379 -0.0718,0.09353 -0.16227,0.104354 -0.26903,0.05346 -0.0405,-0.01931 -0.15227,-0.09452 -0.11167,-0.07534 0.56217,0.26553 0.6543,0.456014 0.45523,0.147187 -0.12029,-0.368371 0.11495,-0.474546 0.432467,-0.382857 0.0407,0.02606 0.16555,0.09904 0.122,0.07817 -1.072447,-0.513946 -0.17054,-0.256096 -0.543707,0.214817 -0.0747,0.06154 -0.11251,0.112689 -0.21532,0.121767 -0.0834,0.0074 -0.3112,-0.122081 -0.23677,-0.08376 0.64886,0.334108 0.74212,0.51744 0.53658,0.20465 -0.11121,-0.396788 0.11932,-0.516216 0.461867,-0.367517 -1.164327,-0.597427 -0.0563,-0.221803 -0.460977,0.375004 -0.12142,0.09871 -0.28207,0.179298 -0.44549,0.133536 -0.0603,-0.01691 -0.22232,-0.115549 -0.16505,-0.09007 0.63712,0.283437 0.69618,0.469593 0.46388,0.07505 -0.17348,-0.458451 0.0504,-0.849244 0.518887,-0.94556 0.0575,0.01098 0.11759,0.0127 0.17252,0.03294 0.0552,0.02035 0.20612,0.113652 0.15355,0.08719 -0.20748,-0.104402 -0.39909,-0.24458 -0.618377,-0.321103 -0.0535,-0.01868 0.072,0.08876 0.0976,0.139369 0.0747,0.147696 0.0553,0.172582 0.0524,0.331168 -0.11818,0.425011 -0.48048,0.49756 -0.83794,0.31056 0.20186,0.103812 0.38904,0.243346 0.60558,0.311431 0.0125,0.0039 -0.12612,-0.09834 -0.15867,-0.338484 -0.0293,-0.216265 0.0447,-0.342138 0.18565,-0.491242 0.0559,-0.01884 0.10939,-0.04834 0.16786,-0.05648 0.128617,-0.01789 0.262247,0.01373 0.377297,0.06955 0.0597,0.02895 0.22736,0.135464 0.16682,0.108405 -0.618517,-0.276431 -0.738337,-0.500409 -0.49024,-0.145561 0.14857,0.365835 0.0899,0.606253 -0.332007,0.626581 -0.27985,-0.0581 -1.00759,-0.337362 0.25001,0.217808 0.0488,0.02154 -0.0819,-0.0695 -0.11442,-0.111778 -0.0824,-0.107207 -0.0659,-0.120579 -0.072,-0.243168 0.17454,-0.343266 0.578157,-0.292685 0.877807,-0.165714 -1.272967,-0.71197 -0.11808,-0.1709 -0.46669,0.299109 -7.9e-4,0.185221 -0.470557,-0.06156 -0.357077,5.29e-4 0.20474,0.112194 0.401047,0.243816 0.618707,0.32825 0.0526,0.02043 -0.0786,-0.08224 -0.10832,-0.130265 -0.027,-0.04363 -0.04,-0.0945 -0.06,-0.141751 -0.0143,-0.123962 0.009,-0.250727 0.1416,-0.301447 0.14608,-0.0559 0.25023,0.03846 0.24802,0.03719 -0.21399,-0.123124 -0.43341,-0.236551 -0.650117,-0.354828 0.235587,0.208196 0.293727,0.451372 -0.0596,0.543161 0.039,0.174024 -0.71859,-0.238213 -0.53179,-0.122928 1.194817,0.737404 0.48767,0.282665 0.24797,0.09087 -0.14697,-0.147429 -0.13422,-0.069 -0.1241,-0.203521 0,0 -0.0687,-0.0409 -0.0687,-0.0409 v 0 c -0.1251,0.06044 -0.0509,0.03552 -0.22796,0.05587 -0.36133,0.329551 1.073517,0.802896 1.450417,0.725379 0.36763,-0.153835 0.40088,-0.428922 0.14467,-0.723578 -0.34657,-0.19953 -1.311117,-1.021844 -1.373287,-0.07922 0.16901,0.522404 0.44488,0.533093 1.053797,0.861478 0.15374,0.08291 0.31425,0.01408 0.43079,-0.08885 0.42269,-0.653222 -0.58283,-1.093838 -0.999667,-1.294445 -0.37244,-0.112252 -0.78102,-0.07998 -0.97982,0.300935 -0.0289,0.649922 0.88476,0.992944 1.451087,1.053258 0.46107,-0.08051 0.56497,-0.360598 0.40796,-0.786733 -0.26792,-0.473945 -0.0637,-0.175014 -0.983027,-0.75293 -0.25061,-0.157552 -0.52505,-0.179366 -0.78242,-0.0263 -0.0451,0.05239 -0.1,0.0977 -0.13518,0.157171 -0.10984,0.185655 -0.16025,0.641284 0.0452,0.79539 0.27981,0.20991 0.59202,0.372748 0.88803,0.559123 0.458547,0.164147 0.775317,0.01894 0.935997,-0.449286 0.0461,-0.730867 -0.68488,-1.130925 -1.360697,-1.167474 -0.48504,0.160681 -0.73214,0.585157 -0.57914,1.089694 0.25222,0.525965 0.0774,0.258638 1.00021,0.815816 0.240537,0.145227 0.506377,0.03515 0.685087,-0.144507 0.37538,-0.705948 -0.39381,-1.041233 -0.948817,-1.320594 -0.41877,-0.103941 -0.64326,0.102891 -0.56977,0.533263 0.0206,0.04678 0.0208,0.109828 0.0618,0.140348 0.0592,0.04407 0.73873,0.645512 1.099227,0.546693 0.11973,-0.03282 0.15207,-0.09118 0.23402,-0.176993 0.22557,-0.65422 -0.26948,-0.917742 -0.905377,-1.165691 -0.35371,-0.04999 -0.62202,0.154212 -0.51716,0.534818 0.0245,0.04967 0.0296,0.115226 0.0734,0.149021 0.17929,0.1381 0.92026,0.853102 1.211717,0.390859 0.063,-0.605319 -0.466347,-0.951177 -1.052817,-1.04742 -0.40371,0.03229 -0.59542,0.326785 -0.51417,0.72425 0.17397,0.499821 0.34016,0.520096 0.90613,0.848376 0.16236,0.09417 0.30564,0.03804 0.425657,-0.08299 0.22868,-0.359481 0.19921,-0.772252 -0.0195,-1.134157 -0.51799,-0.33341 -0.96193,-0.801016 -1.32762,-0.07787 -0.0822,0.481735 0.23918,1.135038 0.87151,1.02906 0.17939,-0.308957 -0.80696,-0.752502 -0.92057,-0.825834 0,0 0.35107,0.277874 0.35107,0.277874 z" />
    <path
       style="fill:#999999;stroke-width:0.264583"
       id="path746"
       d="m 106.0079,66.469391 c 0.0447,-0.38349 0.12521,-0.777444 0.30388,-1.122913 0.23619,-0.336243 0.061,-0.289787 -0.61783,-0.478181 -0.006,-0.0019 -0.0831,0.13013 -0.13524,0.217876 -0.15736,0.272039 -0.26957,0.568915 -0.36685,0.867109 -0.11272,0.343537 -0.11606,0.210132 0.6286,0.44442 0.0291,0.0092 0.006,-0.06086 0.009,-0.09126 0.0168,-0.167966 0.007,-0.09593 0.0413,-0.273222 0.0757,-0.333579 0.21402,-0.642829 0.4039,-0.925822 0.10879,-0.173231 0.28001,-0.283652 0.43262,-0.412864 0.0601,-0.04429 0.1295,-0.123457 0.18313,-0.09708 -0.214,-0.115686 -0.4142,-0.261741 -0.64201,-0.347064 -0.003,-0.0011 -0.013,0.07748 -0.0691,0.237151 -0.0576,0.164164 -0.12843,0.323924 -0.19078,0.486344 -0.0777,0.187455 -0.1534,0.375634 -0.235,0.561324 -0.16221,0.290282 0.52829,0.567433 0.73589,0.321913 0.17082,-0.254783 0.30719,-0.530278 0.44443,-0.804034 0.059,-0.140033 0.12518,-0.277093 0.20546,-0.406127 -0.8832,-0.389041 -0.59102,-0.418812 -0.86851,0.239109 -0.10354,0.271674 -0.20654,0.540573 -0.35228,0.792676 -0.0964,0.14878 -0.20983,0.287803 -0.37187,0.365918 0.005,0.05896 -0.16604,-0.05115 -0.16385,-0.04994 0.64931,0.357892 0.86,0.554974 0.61273,0.331841 -0.13953,-0.152459 -0.17799,-0.345342 -0.18041,-0.545579 0.036,-0.266279 0.21184,-0.476205 0.38429,-0.670864 0.13871,-0.158166 0.32683,-0.251492 0.41779,-0.444532 -0.0396,-0.09452 0.15357,-0.03414 -0.24292,-0.155734 -0.0356,-0.0109 0.0594,0.04797 0.0772,0.08064 0.0304,0.05567 -0.005,0.10296 -0.0262,0.150361 -0.16189,0.258132 -0.43862,0.390977 -0.71738,0.48664 -0.14307,0.02178 -0.29359,0.124132 -0.44239,0.0688 -0.0356,-0.01323 -0.12521,-0.08478 -0.0911,-0.0681 0.61048,0.299066 0.45731,0.491159 0.61537,0.251851 0.16342,-0.262162 0.39522,-0.469431 0.64774,-0.642963 0.21189,-0.08482 0.25591,-0.164354 0.22644,-0.378146 0,0 -0.0653,-0.04627 -0.0653,-0.04627 v 0 c -0.29045,-0.09027 -0.58538,-0.202924 -0.86554,-0.02511 -0.26543,0.182822 -0.51278,0.411795 -0.63695,0.715751 -0.0619,0.669319 0.64714,0.689348 0.88908,0.30107 0.15588,-0.22138 0.3413,-0.414343 0.50975,-0.624261 0.009,-0.01926 0.0462,-0.114644 0.0696,-0.133276 0.0189,-0.01505 0.0846,-0.0091 0.0675,-0.02622 -0.13879,-0.139774 -0.32617,-0.233312 -0.50997,-0.297082 -0.2962,-0.02029 -0.47614,0.117964 -0.65607,0.347374 -0.1669,0.22225 -0.34334,0.455268 -0.37696,0.73955 -0.005,0.210653 0.0197,0.414343 0.14113,0.593378 0.2101,0.299966 0.64799,0.642478 1.01237,0.489985 0.14874,-0.112093 0.2627,-0.261781 0.36054,-0.419021 0.15167,-0.253404 0.24627,-0.5373 0.34114,-0.81585 0.2068,-0.693656 0.3393,-0.439145 -0.46041,-0.989608 -0.0711,0.13662 -0.1055,0.292502 -0.17499,0.430249 -0.11826,0.275106 -0.26326,0.540047 -0.45104,0.774449 -0.27429,0.2759 0.52249,0.749628 0.55306,0.424503 0.0526,-0.197647 0.11946,-0.39102 0.19115,-0.582615 0.0837,-0.209632 0.31502,-0.70707 0.30604,-0.715735 -0.1855,-0.178994 -0.41601,-0.304517 -0.62401,-0.456777 -0.0717,0.05074 -0.15457,0.08722 -0.21813,0.150535 -0.15854,0.13244 -0.32049,0.261069 -0.42835,0.441587 -0.18331,0.296936 -0.32119,0.614444 -0.40699,0.953667 -0.005,0.01923 -0.10163,0.336031 -0.0785,0.353515 0.81901,0.620223 0.60027,0.608176 0.67703,0.257812 0.0744,-0.300286 0.17658,-0.593021 0.35227,-0.850921 0.027,-0.03846 0.0517,-0.07865 0.0809,-0.115377 0.0196,-0.0245 0.0899,-0.04861 0.0651,-0.06783 -0.19243,-0.149259 -0.42806,-0.233883 -0.62987,-0.370202 -0.0132,-0.0089 0.0237,-0.03871 0.0372,-0.03017 0.0443,0.0281 -0.0663,0.149961 -0.009,0.157086 -0.0717,0.387554 -0.20117,0.763947 -0.27822,1.150784 0,0 0.56094,0.295487 0.56094,0.295487 z" />
    <path
       style="fill:#999999;stroke-width:0.264583"
       id="path748"
       d="m 76.401489,57.605004 c -0.0054,0.234797 -0.05206,0.436705 -0.147353,0.648809 0,0 0.07351,0.03156 0.07351,0.03156 v 0 c 0.09068,-0.201918 0.20661,-0.396397 0.222345,-0.622224 0,0 -0.148503,-0.05815 -0.148503,-0.05815 z" />
    <path
       style="fill:#999999;stroke-width:0.264583"
       id="path750"
       d="m 68.865392,55.798181 c 1.578261,1.39459 3.378173,2.539598 5.243818,3.510384 0.660327,0.3436 1.341034,0.646523 2.01155,0.969784 3.515533,1.550492 7.239977,2.571768 11.072193,2.914963 1.738719,0.155714 4.162378,0.13564 5.895161,0.147762 0.972272,-0.04019 1.944547,-0.08038 2.91682,-0.120569 0,0 -0.06957,-0.03949 -0.06957,-0.03949 v 0 c -0.972204,0.04007 -1.944408,0.08014 -2.916614,0.120212 -1.015697,-0.01424 -2.03283,0.01313 -3.047089,-0.04272 -1.061535,-0.05846 -2.119785,-0.172785 -3.175295,-0.299948 -3.433433,-0.413644 -6.81705,-1.180369 -10.017583,-2.511468 -0.672704,-0.322313 -1.355482,-0.624394 -2.018112,-0.966941 -1.958967,-1.012691 -3.829062,-2.22351 -5.561098,-3.586693 0,0 -0.334177,-0.09528 -0.334177,-0.09528 z" />
    <path
       style="fill:#999999;stroke-width:0.264583"
       id="path752"
       d="m 70.646466,53.249231 c 1.706936,1.967979 3.828593,3.544464 5.880603,5.128721 3.351046,2.439683 6.905561,4.609668 10.744978,6.194938 2.421829,0.999956 3.26694,1.190802 5.738701,1.93707 2.369079,0.551693 4.768757,0.95368 7.201942,1.04965 0.58278,0.02299 1.16647,0.0026 1.74971,0.0038 0,0 -0.0647,-0.04704 -0.0647,-0.04704 v 0 c -0.58313,-0.0013 -1.16672,0.01886 -1.74939,-0.0043 -2.531267,-0.100468 -5.03503,-0.479825 -7.455309,-1.24782 -2.484572,-0.77474 -3.394532,-0.996268 -5.825741,-2.012918 -3.500797,-1.463921 -6.760686,-3.392096 -9.801132,-5.658123 -2.120133,-1.64529 -4.214942,-3.33062 -6.125938,-5.219763 0,0 -0.293714,-0.12428 -0.293714,-0.12428 z" />
    <path
       style="fill:#999999;stroke-width:0.264583"
       id="path754"
       d="m 109.92471,60.266817 c 0.10322,-0.04599 0.21227,-0.08066 0.30966,-0.137969 1.45091,-0.853657 2.52052,-2.747651 3.39324,-4.115427 1.05223,-1.73957 2.02841,-3.524317 2.89235,-5.365221 0.3228,-0.687822 0.61664,-1.388872 0.92781,-2.082036 1.31173,-2.922008 0.48087,-0.994425 1.70125,-3.896418 0.93166,-2.315252 1.84144,-4.661945 2.31295,-7.120868 0.0133,-0.08963 0.0266,-0.179258 0.0399,-0.268889 0.002,-0.01516 0.0204,-0.04454 0.005,-0.04547 -0.12766,-0.0078 -0.29793,-0.07297 -0.38303,0.02249 -0.10051,0.112776 -0.0242,0.301189 -0.0394,0.451488 -0.0776,0.76594 -0.0793,0.71329 -0.19609,1.524444 -0.41433,2.360952 -1.12457,4.669849 -2.06538,6.87377 -0.2412,0.56502 -0.50909,1.118266 -0.76364,1.6774 -0.28653,0.553193 -0.55259,1.117483 -0.85961,1.65958 -1.24662,2.201169 -2.98021,4.590984 -5.07372,6.055561 -0.60349,0.42219 -1.28006,0.728864 -1.92008,1.093295 -2.04776,0.810784 -1.98251,0.900036 -4.15121,1.301549 -0.64808,0.119984 -1.3068,0.172921 -1.9602,0.259382 0,0 0.0653,0.04617 0.0653,0.04617 v 0 c 0.65355,-0.08668 1.31243,-0.139795 1.96064,-0.26003 2.16884,-0.402285 2.10472,-0.491969 4.15249,-1.303456 1.59416,-0.908323 2.24633,-1.153973 3.58929,-2.408029 0.48469,-0.452596 0.90724,-0.96888 1.32625,-1.482881 1.21344,-1.488546 2.20643,-3.139104 3.0405,-4.865436 0.25014,-0.562012 0.51858,-1.116229 0.75043,-1.686031 0.90356,-2.220621 1.55356,-4.544972 2.04656,-6.887837 0.0816,-0.43684 0.18674,-1.031599 0.28978,-1.474472 0.032,-0.137618 0.14139,-0.27101 0.11119,-0.409038 -0.0315,-0.143793 -0.1904,-0.224952 -0.2761,-0.34462 -0.0738,-0.102981 0.80292,0.774787 0.10756,0.364474 -0.0377,0.847548 -0.20977,1.6255 -0.45317,2.441885 -0.48126,1.614146 -1.09793,3.185337 -1.72619,4.746389 -0.60904,1.402961 -1.06023,2.49755 -1.75278,3.866645 -1.25682,2.484609 -2.69626,4.881988 -4.21812,7.211414 -0.73306,1.020379 -0.99716,1.453346 -1.81332,2.358107 -0.54896,0.608563 -0.75514,0.732483 -1.32783,1.252371 -0.33494,0.304062 -0.34507,0.321709 -0.59913,0.588618 0,0 0.55663,0.359085 0.55663,0.359085 z" />
    <path
       style="fill:#999999;stroke-width:0.264583"
       id="path756"
       d="m 79.750409,61.545335 c -2.002922,-0.827397 -3.843495,-1.995181 -5.653182,-3.174212 -2.149734,-1.51121 -4.283535,-3.11631 -6.01543,-5.112062 -1.073904,-1.237515 -1.209854,-1.5821 -2.03964,-2.941805 -0.206073,-0.464811 -0.445732,-0.916144 -0.61822,-1.394437 -0.431586,-1.19674 -0.759081,-2.847861 -0.01347,-4.008301 0.13242,-0.206095 0.335749,-0.35681 0.503624,-0.535214 0.221468,-0.119796 0.427348,-0.274512 0.664399,-0.359399 1.670651,-0.598243 4.111329,0.249821 5.711656,0.765416 2.401394,0.847697 4.695302,1.959807 7.007756,3.018294 0.322369,0.14658 0.920941,0.423505 1.278187,0.571024 0.260641,0.107625 0.519713,0.220094 0.786143,0.312467 0.05957,0.02065 0.130496,0.0521 0.187454,0.02507 0.102689,-0.04872 -0.04348,-0.228985 -0.105461,-0.324259 -0.241779,-0.351212 -0.749846,-0.926965 -0.477841,-1.395556 0.04785,-0.08244 0.136257,-0.133311 0.204387,-0.199966 0.124395,-0.03926 0.244,-0.0997 0.373183,-0.117803 1.259986,-0.17659 3.055679,0.556036 4.198449,1.011928 1.494125,0.779444 2.925488,1.690174 4.228206,2.759325 0,0 0.07699,0.02173 0.07699,0.02173 v 0 c -0.455124,-0.373799 -0.886282,-0.777303 -1.355007,-1.133902 -1.028885,-0.78276 -2.171921,-1.396807 -3.358894,-1.90239 -1.110537,-0.440849 -3.031313,-1.227542 -4.250871,-1.000744 -0.131815,0.02455 -0.250474,0.09577 -0.375708,0.143661 -0.06924,0.07626 -0.160018,0.137496 -0.207723,0.228793 -0.251179,0.480699 0.215394,1.048633 0.449033,1.427218 0.22731,0.395918 0.04327,0.01789 -0.02683,0.184246 -0.01656,0.0393 0.144805,0.08802 0.104674,0.07358 -0.222415,-0.08005 -1.217228,-0.529774 -1.345895,-0.587163 -2.530079,-1.149565 -5.048247,-2.337503 -7.663767,-3.283883 -1.278181,-0.414888 -2.550285,-0.828441 -3.895198,-0.9698 -0.689417,-0.07246 -1.355537,-0.104217 -2.019384,0.130635 -0.241722,0.08551 -0.44756,0.25031 -0.671343,0.375464 -0.16566,0.186547 -0.371861,0.343794 -0.496977,0.559639 -0.684242,1.180437 -0.234394,2.963843 0.228619,4.123175 0.194333,0.486586 0.452932,0.944977 0.679399,1.417469 0.821721,1.295942 1.065064,1.78689 2.099785,2.964224 1.734152,1.973171 3.85404,3.577832 5.974847,5.104323 1.98491,1.328578 4.008211,2.640299 6.257199,3.483673 0,0 -0.423148,-0.260459 -0.423148,-0.260459 z" />
    <path
       style="fill:#999999;stroke-width:0.264583"
       id="path764"
       d="m 104.41069,48.418728 c 0.39259,-1.617183 1.11801,-3.153894 2.06082,-4.523443 0.26773,-0.388927 0.5714,-0.751854 0.8571,-1.127779 0.9647,-1.043162 2.60655,-2.777299 4.15807,-2.839625 0.16133,-0.0065 0.31855,0.05291 0.47782,0.07937 -0.0189,0.0016 -0.0641,-0.0123 -0.0566,0.0051 0.0527,0.122809 0.15565,0.22011 0.20642,0.343744 0.19453,0.473721 0.15574,1.04249 0.0911,1.537232 -0.0161,0.0597 -0.0322,0.119396 -0.0482,0.179096 -0.0101,0.0086 -0.0429,0.02148 -0.0304,0.02585 0.13586,0.04737 0.281,0.154348 0.41761,0.109173 0.0874,-0.02889 0.0385,-0.180115 0.0641,-0.268478 0.11113,-0.382866 0.17972,-0.520925 0.3383,-0.917525 1.06492,-2.358972 3.01406,-4.14659 4.84273,-5.916335 1.69727,-1.51589 3.33383,-3.158513 5.25458,-4.401182 0.23478,-0.1519 0.4849,-0.278686 0.72735,-0.418028 0.4496,-0.197644 0.92713,-0.490705 1.42681,-0.272259 0.0232,0.01016 -0.0698,0.01968 -0.0621,0.04384 0.0453,0.142121 0.15366,0.257995 0.20306,0.39873 0.0654,0.186462 0.0928,0.384185 0.13916,0.576275 0.24762,1.736794 0.0547,3.504171 -0.33214,5.206812 -0.11511,0.506656 -0.26122,1.005766 -0.39183,1.508647 -0.9391,3.098805 -2.4459,5.982192 -3.95214,8.834432 0,0 0.0694,0.03974 0.0694,0.03974 v 0 c 1.50685,-2.853377 2.99248,-5.739042 3.97605,-8.823364 0.14772,-0.493975 0.31066,-0.983652 0.44317,-1.481926 0.4431,-1.66629 0.69575,-3.406899 0.50959,-5.129271 -0.0443,-0.203012 -0.13081,-0.794329 -0.31248,-0.987234 -0.68096,-0.723035 -1.12016,-0.406744 -1.83942,0.0064 -0.50364,0.340452 -1.02723,0.686951 -1.51263,1.050859 -1.55559,1.166238 -2.99381,2.48186 -4.4146,3.805621 -1.83845,1.779352 -3.70157,3.605363 -5.01118,5.824709 -0.006,0.01082 -0.54512,1.106199 -0.54194,1.113584 0.0623,0.144854 0.22982,0.216828 0.35533,0.31229 0.0134,0.01024 -0.007,-0.03312 -0.01,-0.04968 0.0117,-0.06312 0.0234,-0.126233 0.035,-0.189352 0.0815,-0.471948 0.17995,-1.547087 -0.22072,-1.898264 -0.20511,-0.179773 -0.46764,-0.280834 -0.70146,-0.421253 -0.14596,-0.01109 -0.29283,-0.05298 -0.43788,-0.03328 -1.45566,0.197625 -3.01362,2.000883 -3.94347,2.995832 -0.29048,0.373468 -0.59603,0.735687 -0.87146,1.120397 -0.85607,1.195768 -1.64573,2.539381 -2.14044,3.93174 -0.0564,0.158872 -0.085,0.326313 -0.12751,0.489468 0,0 0.30502,0.15933 0.30502,0.15933 z" />
    <path
       style="fill:#999999;stroke-width:0.264583"
       id="path782"
       d="m 61.911674,41.296669 c 0.160323,1.062551 0.56224,2.058845 0.987828,3.038073 0.940953,2.025817 2.111448,3.938203 3.521304,5.673018 0.36447,0.44848 0.756653,0.87371 1.134981,1.310565 2.525221,2.718815 5.655651,4.760894 8.942269,6.442233 0.77855,0.398286 1.576752,0.756926 2.365129,1.135388 3.639261,1.702983 7.485469,2.858761 11.371899,3.832861 0,0 -0.06841,-0.04147 -0.06841,-0.04147 v 0 C 88.843705,62.355559 87.634505,62.072325 86.327734,61.654094 84.235362,60.98443 82.193722,60.164286 80.201889,59.239681 79.455018,58.874457 78.699223,58.52694 77.961276,58.144008 74.72947,56.466982 71.655244,54.447013 69.138591,51.792373 68.744562,51.354099 68.339077,50.925865 67.9565,50.477557 c -1.514222,-1.774379 -2.887934,-3.700159 -3.953072,-5.777472 -0.525255,-1.052434 -1.041067,-2.109049 -1.491765,-3.196021 0,0 -0.599989,-0.207395 -0.599989,-0.207395 z" />
    <path
       style="fill:#999999;stroke-width:0.264583"
       id="path784"
       d="m 77.096479,57.375394 c 0.0927,0.09056 0.177669,0.189786 0.278108,0.271685 0.400365,0.326458 1.0507,0.751102 1.461892,1.005913 1.299792,0.805477 2.561003,1.41145 3.950902,2.045456 2.35701,1.046608 4.797932,1.916013 7.330322,2.424423 0.598923,0.120243 2.017257,0.33082 2.640516,0.426311 0.982466,0.149581 1.968841,0.267425 2.957124,0.36982 0,0 -0.069,-0.0405 -0.069,-0.0405 v 0 c -1.012925,-0.105152 -2.026376,-0.21361 -3.026526,-0.412027 -3.003886,-0.635273 -5.982007,-1.422746 -8.853698,-2.519147 -0.499997,-0.227961 -1.006035,-0.443113 -1.49999,-0.683881 -1.57486,-0.76763 -3.067705,-1.695002 -4.504018,-2.695067 0,0 -0.665637,-0.192993 -0.665637,-0.192993 z" />
    <path
       style="fill:#999999;stroke-width:0.264583"
       id="path786"
       d="m 94.63638,64.822947 c -2.16166,0.04319 -4.200983,-0.752604 -6.194322,-1.492146 -4.087926,-1.661696 -7.942399,-3.824337 -11.685515,-6.14652 0,0 -0.07727,-0.0207 -0.07727,-0.0207 v 0 c 3.79441,2.354545 7.704596,4.539452 11.849825,6.221326 2.014861,0.759129 4.071698,1.593793 6.26434,1.527641 0,0 -0.157054,-0.0896 -0.157054,-0.0896 z" />
    <path
       style="fill:#999999;stroke-width:0.264583"
       id="path788"
       d="m 70.320195,53.594774 c 1.571225,1.836056 3.669883,3.1395 5.67616,4.442415 3.210756,1.891334 6.620727,3.505796 10.197582,4.577696 1.584831,0.474936 2.562407,0.631902 4.170745,0.9529 2.601939,0.445864 1.348864,0.258252 3.757384,0.574998 0,0 -0.06888,-0.04068 -0.06888,-0.04068 v 0 c -2.408295,-0.317116 -1.155345,-0.129296 -3.757003,-0.575633 -0.781441,-0.19726 -1.569289,-0.370679 -2.344323,-0.591773 -3.721298,-1.061578 -7.332617,-2.494674 -10.62831,-4.53937 -2.23992,-1.438459 -4.484667,-2.88214 -6.486914,-4.646733 0,0 -0.516438,-0.153817 -0.516438,-0.153817 z" />
    <path
       style="fill:#999999;stroke-width:0.264583"
       id="path792"
       d="m 62.32172,39.675884 c 0.58911,0.659511 1.379312,1.112056 2.138651,1.54547 1.167165,0.666193 1.693539,0.914064 2.933266,1.545907 3.104332,1.435465 6.266807,2.823248 9.586511,3.688773 1.478739,0.385543 2.133422,0.447868 3.60522,0.670498 1.996247,0.184042 1.004865,0.08491 2.974201,0.296846 0,0 -0.06898,-0.04052 -0.06898,-0.04052 v 0 c -2.114794,-0.228059 -0.985349,-0.06152 -3.38178,-0.542171 -3.831526,-0.926964 -7.679604,-1.95285 -11.235143,-3.690471 -2.036466,-1.029504 -4.105558,-2.034298 -5.999901,-3.313604 0,0 -0.552042,-0.16073 -0.552042,-0.16073 z" />
    <path
       style="fill:#999999;stroke-width:0.264583"
       id="path794"
       d="m 75.957137,45.668666 c 1.857778,0.842603 3.863963,1.300021 5.840532,1.77017 1.769155,0.490644 3.581426,0.673873 5.405564,0.782287 0,0 -0.06904,-0.04041 -0.06904,-0.04041 v 0 c -2.037788,-0.247246 -4.034767,-0.74198 -6.040735,-1.167715 -1.116627,-0.268739 -1.427653,-0.337298 -2.508807,-0.620641 -0.596937,-0.156442 -1.181153,-0.361126 -1.782095,-0.501402 -0.02008,-0.0047 -0.02969,0.04219 -0.0496,0.0369 -0.121879,-0.0324 -0.233468,-0.09546 -0.350203,-0.143194 0,0 -0.445609,-0.115984 -0.445609,-0.115984 z" />
    <path
       style="fill:#999999;stroke-width:0.264583"
       id="path796"
       d="m 101.84807,45.70829 c 0.14843,-0.05396 0.30242,-0.09453 0.44527,-0.161872 0.91005,-0.428995 1.73865,-1.062582 2.55954,-1.634522 1.19415,-0.831998 1.44944,-1.028075 2.68856,-1.929008 2.50253,-1.959864 5.11289,-3.816556 7.41511,-6.018411 1.33442,-1.276249 1.74871,-1.829596 2.91538,-3.199939 0.94981,-1.196049 1.86976,-2.412349 2.74895,-3.660818 0,0 -0.0689,-0.04062 -0.0689,-0.04062 v 0 c -0.88279,1.253527 -1.75991,2.515949 -2.87122,3.585162 -0.49581,0.484204 -0.98103,0.97949 -1.48742,1.452608 -2.92076,2.728812 -6.09671,5.170056 -9.41193,7.398575 -1.25052,0.869138 -2.48937,1.762207 -3.77341,2.58204 -0.56307,0.359508 -0.97581,0.579294 -1.51315,0.941826 -0.11113,0.07497 -0.21458,0.160729 -0.32187,0.241094 0,0 0.67511,0.443886 0.67511,0.443886 z" />
    <path
       style="fill:#999999;stroke-width:0.264583"
       id="path798"
       d="m 119.05247,33.182263 c -0.5734,0.729344 -1.13298,1.469289 -1.71668,2.190471 -0.14118,0.173383 -0.26479,0.348122 -0.44063,0.488494 -0.0499,0.03981 -0.22625,0.07778 -0.16526,0.0965 0.51685,0.158702 0.53646,0.0041 0.83771,-0.32759 0.16345,-0.179971 0.32133,-0.364935 0.48199,-0.547403 1.56619,-1.923019 3.03007,-3.928894 4.40783,-5.990451 0.19272,-0.357851 0.38545,-0.715701 0.57818,-1.07355 0.14262,-0.315752 0.26403,-0.641969 0.42786,-0.947254 0.13428,-0.250216 0.30929,-0.476338 0.46394,-0.714509 0,0 -0.073,-0.03269 -0.073,-0.03269 v 0 c -0.15464,0.238157 -0.28912,0.490699 -0.46392,0.714469 -0.48229,0.617374 -1.10539,1.11724 -1.53045,1.783689 -0.81263,1.114993 -1.60848,2.242827 -2.45824,3.330196 -0.76402,0.977648 -0.77292,0.946579 -1.51836,1.869451 -0.19303,0.238969 -0.38091,0.48205 -0.57136,0.723078 -0.1326,0.195947 -0.27226,0.387295 -0.39779,0.587839 -0.0785,0.125544 -0.22658,0.241872 -0.21395,0.389447 0.0128,0.148243 0.15034,0.272123 0.27719,0.349912 0.0451,0.02766 0.021,-0.105136 0.0453,-0.152116 0.0843,-0.162741 0.2792,-0.383399 0.3856,-0.514073 0.58372,-0.721275 1.14336,-1.461257 1.71678,-2.190673 0,0 -0.0728,-0.03324 -0.0728,-0.03324 z" />
    <path
       style="fill:#999999;stroke-width:0.264583"
       id="path800"
       d="m 124.12558,27.969559 c -0.0413,0.250624 -0.0424,0.506375 -0.0825,0.757031 -0.0617,0.386032 -0.2776,1.335138 -0.34859,1.651124 -0.0944,0.42045 -0.19097,0.840433 -0.28646,1.260653 -0.11927,0.532606 -0.23854,1.065212 -0.3578,1.597821 -0.69003,3.056996 -1.64114,6.045388 -2.66528,9.004411 -0.29766,0.859999 -0.63814,1.705533 -0.91012,2.573996 -0.27763,0.886563 -0.49176,1.791777 -0.73764,2.687667 -1.09315,3.24172 -0.528,1.676704 -1.68491,4.698846 0,0 0.0699,0.0389 0.0699,0.0389 v 0 c 1.15395,-3.014363 0.54464,-1.474763 1.83351,-4.61659 0.38166,-0.820729 0.79807,-1.626177 1.14499,-2.462186 0.34822,-0.839179 0.62764,-1.70529 0.93859,-2.558981 1.06651,-2.928001 2.19706,-5.846003 2.90012,-8.889 0.11132,-0.538377 0.24262,-1.073004 0.33395,-1.615128 0.21943,-1.302567 0.28998,-2.65294 0.1693,-3.968609 0,0 -0.31709,-0.159954 -0.31709,-0.159954 z" />
    <path
       style="fill:#999999;stroke-width:0.264583"
       id="path802"
       d="m 119.87624,43.848287 c -0.051,0.238173 -0.10188,0.476337 -0.15282,0.714506 0,0 0.0741,0.03001 0.0741,0.03001 v 0 c 0.051,-0.238244 0.10194,-0.476492 0.15291,-0.714738 0,0 -0.0743,-0.02976 -0.0743,-0.02976 z" />
    <path
       style="fill:#999999;stroke-width:0.264583"
       id="path806"
       d="m 85.07668,48.275455 c 0.992051,0.144537 1.995963,0.150289 2.994326,0.08704 0.462941,-0.08704 0.926299,-0.171109 1.388543,-0.261792 0,0 -0.06982,-0.03904 -0.06982,-0.03904 v 0 c -0.619218,0.02187 -1.239157,0.04103 -1.858054,-0.0065 -1.03776,-0.01037 -2.078896,-0.01301 -3.107724,-0.168896 0,0 0.652734,0.389184 0.652734,0.389184 z" />
    <path
       style="fill:#999999;stroke-width:0.264583"
       id="path808"
       d="m 88.089138,47.644099 c 0.410688,0.541725 0.880987,1.043862 1.422993,1.454565 0.433546,0.257697 0.220315,0.14129 0.637901,0.352476 0,0 0.07725,0.02083 0.07725,0.02083 v 0 c -0.100205,-0.12241 -0.05296,-0.05427 -0.138102,-0.206891 -0.403717,-0.515882 -0.917082,-0.94486 -1.35969,-1.426939 0,0 -0.640345,-0.194035 -0.640345,-0.194035 z" />
    <path
       style="fill:#999999;stroke-width:0.264583"
       id="path810"
       d="m 89.386311,48.463843 c 0.409267,0.135754 0.835704,0.129503 1.26047,0.117482 0,0 -0.06938,-0.03982 -0.06938,-0.03982 v 0 c -0.472194,-0.01714 -0.948944,-0.057 -1.400222,-0.207168 0,0 0.209139,0.129505 0.209139,0.129505 z" />
    <path
       style="fill:#999999;stroke-width:0.264583"
       id="path812"
       d="m 89.655808,48.111072 c 0.380141,-0.01121 0.760331,-0.01819 1.140535,-0.02713 0,0 -0.0695,-0.03962 -0.0695,-0.03962 v 0 c -0.398839,0.0093 -0.798142,0.0224 -1.196629,-0.0059 0,0 0.125596,0.07269 0.125596,0.07269 z" />
    <path
       style="fill:#999999;stroke-width:0.264583"
       id="path864"
       d="m 92.510282,49.08037 c -0.124667,-0.04649 -0.259038,-0.07248 -0.374001,-0.139456 -0.01966,-0.01146 0.04492,-0.04891 0.02688,-0.06279 -0.278835,-0.214591 -0.592014,-0.381278 -0.875205,-0.590088 -1.282756,-0.945826 -2.420332,-2.041397 -3.563738,-3.146389 -1.638373,-1.684948 -3.189022,-3.462741 -4.539404,-5.389032 -0.747849,-1.066792 -0.893538,-1.354687 -1.538403,-2.438293 -0.449178,-0.814459 -0.882707,-1.64143 -1.222857,-2.508536 -0.125217,-0.319197 -0.268855,-0.641872 -0.209808,-0.986408 0.429516,0.138931 -0.385342,-0.125653 -0.38705,-0.112848 -0.02681,0.201127 0.32611,0.241826 0.482732,0.370819 0.711686,0.586138 1.388717,1.220515 2.079793,1.830456 1.769951,1.506634 3.604639,2.958507 5.634988,4.102921 0.409303,0.230705 0.832986,0.434909 1.249482,0.652363 1.714397,0.740365 3.475952,1.546746 5.356716,1.749377 0.242017,0.02607 0.48685,-8.02e-4 0.730255,0.0017 0.237917,0.0025 0.475778,0.0088 0.713666,0.01326 0,0 -0.06922,-0.0401 -0.06922,-0.0401 v 0 c -0.262055,-0.01889 -0.526278,-0.01815 -0.786172,-0.0567 -0.205361,-0.03046 -2.006185,-0.41385 -2.201684,-0.4615 -0.402074,-0.098 -0.79919,-0.215334 -1.198864,-0.322702 -0.215602,-0.05792 -0.438034,-0.09451 -0.646966,-0.173165 -0.427961,-0.161069 -0.839465,-0.362892 -1.259194,-0.544353 -0.422692,-0.217659 -0.852581,-0.421874 -1.268073,-0.652983 -2.032516,-1.130532 -3.872377,-2.567396 -5.624698,-4.087746 -0.845673,-0.752301 -0.664719,-0.583091 -1.448208,-1.309755 -0.759081,-0.704025 -0.937524,-0.991744 -2.026641,-1.359348 -0.05706,-0.01927 -0.108064,0.05315 -0.162095,0.07972 0.0197,0.393092 0.192525,0.729743 0.363045,1.082584 0.42659,0.882706 0.918833,1.732433 1.413771,2.577827 0.658181,1.044349 0.887975,1.441354 1.625255,2.469874 1.375251,1.918506 2.933492,3.695397 4.561185,5.402142 1.08392,1.085111 2.16396,2.155566 3.37474,3.101524 0.257627,0.20128 0.512462,0.409779 0.794612,0.574929 0.84914,0.497029 0.92877,0.506113 1.585463,0.728765 0,0 -0.590306,-0.356058 -0.590306,-0.356058 z" />
    <path
       style="fill:#999999;stroke-width:0.264583"
       id="path868"
       d="m 94.743284,42.417085 c 0.309104,-0.104108 0.477367,-0.14604 0.785406,-0.354901 0.211371,-0.143321 0.399501,-0.318529 0.591514,-0.486903 0.834383,-0.731659 1.558898,-1.548156 2.288393,-2.381683 1.110375,-1.299655 2.058443,-2.739845 2.850213,-4.254371 0.37634,-0.719894 0.71447,-1.459152 1.07734,-2.185932 0.55447,-1.031018 0.98094,-2.127774 1.5247,-3.163563 0.20936,-0.190266 0.34223,-0.283999 -0.66309,-0.216205 -0.0715,0.0048 0.0112,0.143004 0.0134,0.214641 0.003,0.105878 10e-4,0.211764 0.002,0.317647 0.003,0.621727 0.004,0.316887 -0.009,1.008076 -0.0224,2.240679 -0.34114,4.462067 -0.63136,6.679607 -0.16471,1.379641 -0.34247,2.758006 -0.58401,4.126629 -0.17749,1.005763 -0.26032,1.206617 -0.37147,2.191925 -0.0348,0.308072 -0.047,0.618258 -0.0705,0.927383 -0.20057,0.965345 -0.038,0.531126 -0.44881,1.316549 0,0 0.0734,0.03199 0.0734,0.03199 v 0 c 0.41159,-0.787049 0.17288,-0.383741 0.73151,-1.200693 0.15382,-0.257408 0.34177,-0.497281 0.46147,-0.772225 0.30394,-0.698177 0.37812,-1.405821 0.48966,-2.151038 0.20648,-1.379599 0.36882,-2.765452 0.53157,-4.150695 0.22995,-2.241149 0.43231,-4.487145 0.49552,-6.740154 0.0137,-0.438066 0.0319,-0.875804 0.0474,-1.313781 0.003,-0.07224 0.0607,-0.169567 0.006,-0.216753 -0.72594,-0.625655 -0.68383,-0.686009 -0.77043,-0.347054 -0.27471,1.137978 -0.78355,2.206883 -1.25369,3.272577 -0.17659,0.349572 -0.33973,0.706271 -0.52977,1.048715 -1.03666,1.868015 -2.305888,3.61021 -3.664319,5.253821 -0.661279,0.725112 -0.913013,1.036783 -1.630862,1.688559 -0.858152,0.779165 -0.562295,0.457308 -1.396475,1.083607 -0.133478,0.100209 -0.257115,0.2129 -0.385675,0.319347 -0.06064,0.04434 -0.121288,0.08869 -0.181933,0.13303 0,0 0.622265,0.321832 0.622265,0.321832 z" />
    <path
       style="fill:#999999;stroke-width:0.264583"
       id="path870"
       d="m 101.50801,30.111529 c 0.23191,-0.410463 0.29709,-0.870936 0.42252,-1.31561 0.0523,-0.18536 0.12407,-0.364647 0.18612,-0.54697 0,0 -0.0738,-0.03105 -0.0738,-0.03105 v 0 c -0.0709,0.178481 -0.12603,0.363987 -0.21249,0.535438 -0.20591,0.408316 -0.50312,0.777307 -0.71288,1.185101 0,0 0.39046,0.173092 0.39046,0.173092 z" />
    <path
       style="fill:#999999;stroke-width:0.264583"
       id="path872"
       d="m 90.474296,46.74898 c -0.161889,-0.176985 -0.449658,-0.254765 -0.594161,-0.446219 -0.198611,-0.04253 -0.393629,-0.108374 -0.595829,-0.127597 -0.03837,-0.0036 0.05693,0.05201 0.08447,0.07898 0.152016,0.148837 0.270581,0.313847 0.381818,0.494487 0.194744,0.227555 0.08729,0.586675 0.257471,0.817963 0.06492,0.08824 0.150688,0.159051 0.22603,0.238577 -0.0016,0.04944 -0.0032,0.09888 -0.0048,0.148321 0,0 0.07404,0.03031 0.07404,0.03031 v 0 c 0.02194,-0.04167 0.04387,-0.08336 0.06581,-0.125033 0.08959,-0.01775 0.187542,-0.01154 0.268767,-0.05331 0.227031,-0.11675 -0.04129,-0.658977 -0.09228,-0.803383 -0.34597,-0.573478 -0.611474,-0.69835 -1.310644,-0.876406 0.309731,0.176099 0.61627,0.357823 0.923488,0.538225 0,0 0.315796,0.08509 0.315796,0.08509 z" />
    <path
       style="fill:#999999;stroke-width:0.264583"
       id="path874"
       d="m 100.81641,43.760595 c 0.0456,0.303415 0.10407,0.599468 0.10729,0.907111 0,0 0.0748,0.02834 0.0748,0.02834 v 0 c -0.003,-0.280251 0.0412,-0.541154 0.16624,-0.795828 0,0 -0.34859,-0.139598 -0.34859,-0.139598 z" />
    <path
       style="fill:#999999;stroke-width:0.264583"
       id="path876"
       d="m 100.76634,44.612887 c 0.0638,0.02571 0.12767,0.05141 0.19151,0.07711 0,0 -0.0678,-0.04247 -0.0678,-0.04247 v 0 c -0.0705,-0.02985 -0.14092,-0.05971 -0.21138,-0.08956 0,0 0.0877,0.05491 0.0877,0.05491 z" />
    <path
       style="fill:#999999;stroke-width:0.264583"
       id="path878"
       d="m 101.17108,44.919299 c 0.53155,0.07299 1.10318,0.05228 1.59656,-0.185541 0.27118,-0.130732 0.50399,-0.329449 0.75841,-0.49036 0.41392,-0.334114 0.19853,-0.185927 0.64427,-0.447351 0,0 -0.0713,-0.03639 -0.0713,-0.03639 v 0 c -0.53923,0.2514 -0.23704,0.140522 -0.91694,0.302943 -0.88901,0.193569 -0.31096,0.08852 -1.26801,0.206556 -0.55274,0.06822 -1.1113,0.180298 -1.66874,0.08732 0,0 0.9257,0.562848 0.9257,0.562848 z" />
    <path
       style="fill:#999999;stroke-width:0.264583"
       id="path880"
       d="m 101.50842,44.540839 c 0.0879,-0.03421 0.17846,-0.06234 0.26378,-0.102616 0.15242,-0.07194 0.64041,-0.351008 0.76329,-0.421194 0.27795,-0.158753 0.77118,-0.426568 1.00555,-0.640885 0.15109,-0.13816 0.26259,-0.314173 0.39388,-0.471258 0.52457,-0.641107 0.23022,-0.349144 0.88544,-0.873465 0,0 -0.0717,-0.03551 -0.0717,-0.03551 v 0 c -0.82258,0.492703 -0.37094,0.273832 -1.36739,0.630204 -0.27271,0.08465 -0.5504,0.15466 -0.81812,0.253958 -0.75744,0.280916 -1.46964,0.707125 -2.1827,1.079464 0,0 1.12795,0.581297 1.12795,0.581297 z" />
    <path
       style="fill:#999999;stroke-width:0.264583"
       id="path882"
       d="m 102.58763,45.195556 c 0.16078,-0.003 0.32323,0.01431 0.48235,-0.009 0.36187,-0.05298 0.81625,-0.238855 1.14887,-0.36549 0.82946,-0.315793 1.62567,-0.678164 2.4244,-1.064657 0.87926,-0.458957 1.26646,-1.386443 2.03365,-1.976749 0.25495,-0.196163 0.55226,-0.330026 0.82839,-0.495039 0,0 -0.0672,-0.04347 -0.0672,-0.04347 v 0 c -0.27608,0.164944 -0.5327,0.36803 -0.82825,0.494834 -1.16848,0.501328 -2.45005,0.472305 -3.63556,0.911397 -0.82422,0.335595 -1.64096,0.68947 -2.46566,1.023647 -0.19908,0.08067 -0.8116,0.294444 -1.02252,0.440894 -0.0745,0.05173 -0.11568,0.139742 -0.17353,0.209613 0,0 1.27502,0.873996 1.27502,0.873996 z" />
    <path
       style="fill:#999999;stroke-width:0.264583"
       id="path886"
       d="m 111.19577,40.922487 c 0.11924,-0.08477 0.24412,-0.162097 0.3577,-0.254319 0.69643,-0.565544 1.30497,-1.245509 1.92549,-1.889573 1.35515,-1.406553 0.39417,-0.423127 1.81953,-1.869521 2.00658,-1.93349 3.71705,-4.130511 5.33725,-6.388495 0.60631,-0.87072 1.12196,-1.796117 1.62296,-2.729378 0.3303,-0.61526 0.67129,-1.214344 0.94747,-1.855609 0.19533,-0.483477 0.0921,-0.26624 0.29867,-0.656868 0,0 -0.0734,-0.03202 -0.0734,-0.03202 v 0 c -0.20766,0.392626 -0.0844,0.183463 -0.38168,0.620262 -0.55517,0.811185 -0.0931,0.111938 -0.66976,1.06841 -0.69449,1.152023 -1.46199,2.258969 -2.21916,3.370014 -1.62602,2.266964 -3.43079,4.396308 -5.45021,6.325558 -0.89193,0.874241 -1.79783,1.733924 -2.68735,2.610579 -0.30386,0.299462 -0.79766,0.784304 -1.09844,1.126851 -0.0863,0.09834 -0.16181,0.205712 -0.2427,0.308566 0,0 0.51354,0.245553 0.51354,0.245553 z" />
    <path
       style="fill:#999999;stroke-width:0.264583"
       id="path888"
       d="m 60.710566,38.980695 c 1.704197,1.321261 3.736881,2.146722 5.693337,3.015367 3.44948,1.514336 7.01297,2.768355 10.671461,3.673853 0.655169,0.162159 1.317334,0.294617 1.976003,0.441925 2.067269,0.341851 4.158505,0.490534 6.250863,0.540569 0,0 -0.06932,-0.03994 -0.06932,-0.03994 v 0 c -2.252785,-0.05443 -4.496197,-0.237125 -6.687659,-0.805933 -0.671498,-0.155996 -1.345688,-0.300821 -2.014495,-0.467985 -3.246037,-0.811321 -6.427357,-1.873632 -9.505745,-3.185082 -2.001888,-0.897854 -4.045053,-1.776664 -5.849179,-3.041219 0,0 -0.46527,-0.13155 -0.46527,-0.13155 z" />
    <path
       style="fill:#999999;stroke-width:0.264583"
       id="path890"
       d="m 70.547751,43.371263 c 2.564403,1.210077 5.232693,2.148963 7.939471,2.980956 0.616499,0.171748 1.230306,0.353467 1.849498,0.515247 0.61262,0.160061 1.225177,0.322932 1.845453,0.450147 1.222837,0.250791 1.931837,0.299017 3.14813,0.427083 1.581534,0.16652 1.007411,0.107228 2.472187,0.253974 0.294918,0.02239 0.589836,0.04478 0.884754,0.06716 0,0 -0.06911,-0.0403 -0.06911,-0.0403 v 0 C 88.323269,48.003058 88.0284,47.980585 87.73353,47.958116 84.219145,47.519886 80.780819,46.61585 77.37397,45.668678 75.6671,45.127591 75.568717,45.116972 73.942917,44.525734 73.173942,44.24609 72.414237,43.94211 71.650863,43.647848 c -0.224072,-0.08638 -0.439927,-0.199584 -0.673237,-0.256458 -0.137888,-0.03362 0.255419,0.123824 0.383129,0.185738 0,0 -0.813006,-0.205867 -0.813006,-0.205867 z" />
    <path
       style="fill:#999999;stroke-width:0.264583"
       id="path892"
       d="m 89.552087,47.651103 c -1.369746,0.401136 -2.79785,0.574051 -4.223536,0.589821 -0.601193,0.0067 -1.202123,-0.02836 -1.803188,-0.04254 -3.093326,-0.154793 -6.071026,-1.028777 -9.02257,-1.895764 0,0 0.06825,0.04175 0.06825,0.04175 v 0 c 3.05733,0.89762 6.14212,1.747578 9.324277,2.067956 1.614093,0.08661 1.939573,0.156635 3.468419,0.05852 0.894767,-0.05742 1.869981,-0.157834 2.684354,-0.564115 0,0 -0.496003,-0.255616 -0.496003,-0.255616 z" />
    <path
       style="fill:#999999;stroke-width:0.264583"
       id="path894"
       d="m 61.723278,39.948993 c 0.420085,1.151203 0.840012,2.302919 1.371004,3.40819 0.43854,0.73454 0.248078,0.38061 0.582008,1.056004 0,0 0.07597,0.02508 0.07597,0.02508 v 0 c -0.283008,-0.622268 -0.172257,-0.298919 -0.330451,-0.97066 -0.352461,-1.117423 -0.764547,-2.214722 -1.134569,-3.326297 0,0 -0.563955,-0.192322 -0.563955,-0.192322 z" />
    <path
       style="fill:#999999;stroke-width:0.264583"
       id="path896"
       d="m 65.885527,50.909614 c 1.611146,1.174129 3.367738,2.123417 5.121687,3.062218 3.442036,1.776917 7.067427,3.145261 10.737522,4.364478 2.115285,0.651102 1.092949,0.346571 3.065848,0.917469 0,0 -0.06826,-0.04171 -0.06826,-0.04171 v 0 c -1.9728,-0.571059 -0.950519,-0.266442 -3.065685,-0.91774 -3.555807,-1.181656 -7.071736,-2.503192 -10.394353,-4.250617 -1.743965,-0.943463 -3.480065,-1.907939 -5.102226,-3.053022 0,0 -0.294531,-0.08107 -0.294531,-0.08107 z" />
    <path
       style="fill:#999999;stroke-width:0.264583"
       id="path898"
       d="m 69.026956,52.399759 c 1.162859,1.080052 2.538532,1.893422 3.886739,2.715049 1.832056,1.088354 3.758218,2.002496 5.727118,2.813419 1.895176,0.780561 3.165763,1.291004 5.070869,1.850508 0.665701,0.195508 1.343356,0.347729 2.015033,0.521592 2.13653,0.533375 4.306893,0.891201 6.487398,1.182051 0,0 -0.06887,-0.04069 -0.06887,-0.04069 v 0 c -2.235792,-0.298547 -4.470658,-0.640831 -6.640573,-1.27686 -2.063736,-0.625438 -4.147563,-1.236651 -6.146092,-2.0553 -1.931635,-0.791251 -3.809438,-1.710874 -5.607829,-2.771191 -1.476059,-0.899361 -2.957825,-1.797756 -4.345193,-2.831587 0,0 -0.378596,-0.106988 -0.378596,-0.106988 z" />
    <path
       style="fill:#999999;stroke-width:0.264583"
       id="path900"
       d="m 72.142328,55.516644 c 2.586926,1.168071 5.280429,2.070068 7.97088,2.963878 2.971053,0.930805 5.962186,1.821083 9.019302,2.42715 1.136748,0.225358 2.535541,0.428408 3.688758,0.605505 1.892419,0.21275 0.998085,0.134563 2.681716,0.248865 0,0 -0.06914,-0.04025 -0.06914,-0.04025 v 0 C 93.750458,61.607055 94.644667,61.685462 92.752508,61.472286 92.144766,61.368561 91.53405,61.280948 90.929279,61.16111 87.044377,60.391314 83.23253,59.269371 79.460036,58.077763 c -2.32915,-0.778171 -4.660133,-1.564855 -6.943892,-2.466286 0,0 -0.373814,-0.09484 -0.373814,-0.09484 z" />
    <path
       style="fill:#999999;stroke-width:0.264583"
       id="path902"
       d="m 78.256796,59.385001 c 2.593797,0.707099 5.246618,1.192419 7.881098,1.724398 3.508203,0.615926 0.70674,0.158353 4.179245,0.633608 0.70811,0.09691 1.412968,0.216945 2.121543,0.310393 1.527794,0.201491 2.108703,0.240904 3.589986,0.376095 0,0 -0.06429,-0.04761 -0.06429,-0.04761 v 0 C 94.056506,62.207565 92.141063,62.03199 90.253218,61.694903 89.458495,61.552999 88.672362,61.3666 87.881776,61.20321 87.140507,61.050013 86.39903,60.897833 85.657657,60.745144 83.634148,60.308696 83.74056,60.340692 81.777516,59.883095 c -1.195827,-0.278755 -2.387092,-0.599951 -3.594452,-0.82768 -0.146539,-0.02764 -0.295063,-0.04348 -0.442595,-0.06522 0,0 0.516327,0.394803 0.516327,0.394803 z" />
    <path
       style="fill:#999999;stroke-width:0.264583"
       id="path954"
       d="m 70.827476,51.052756 c 0.278963,0.244099 0.542184,0.507457 0.83689,0.732295 1.053454,0.803696 2.9214,2.03817 3.987972,2.708886 1.345501,0.846119 3.964347,2.393268 5.312526,3.120692 0.820283,0.442589 1.665182,0.837954 2.497773,1.256932 2.91583,1.344853 5.924867,2.498685 9.03387,3.312253 1.405577,0.367815 1.897676,0.440081 3.265487,0.700817 0,0 -0.06382,-0.04823 -0.06382,-0.04823 v 0 c -1.367623,-0.260985 -1.859682,-0.333351 -3.265053,-0.701387 -3.213161,-0.84146 -6.304669,-2.067533 -9.289492,-3.518903 -0.848122,-0.4324 -1.70512,-0.847812 -2.544366,-1.297199 -3.319936,-1.777711 -6.445242,-3.888293 -9.461822,-6.135634 0,0 -0.309962,-0.130519 -0.309962,-0.130519 z" />
    <path
       style="fill:#999999;stroke-width:0.264583"
       id="path956"
       d="m 70.716809,49.702304 c 0.480078,1.073116 1.211423,2.003309 1.960387,2.898838 0.214101,0.227034 0.416449,0.465757 0.642303,0.681104 0.555146,0.529325 1.347885,1.161322 1.948574,1.621549 0.719886,0.551553 1.638707,1.219716 2.400689,1.705452 0.472231,0.301027 0.960784,0.575643 1.441177,0.863465 2.713551,1.700384 5.606913,3.019819 8.628923,4.052741 0.561644,0.191969 1.122965,0.386816 1.694137,0.548254 0.501984,0.141883 1.015164,0.240655 1.522749,0.360982 0.428934,0.05688 0.855948,0.130892 1.286809,0.170638 0.367252,0.03388 0.738021,0.01648 1.105302,0.05003 0.719193,0.06568 1.609,0.231571 2.321846,0.353324 0,0 -0.06392,-0.04811 -0.06392,-0.04811 v 0 c -1.008081,-0.172291 -1.519666,-0.236283 -2.545014,-0.523116 -0.240107,-0.06717 -3.373067,-1.074031 -3.586898,-1.142582 -1.769949,-0.562393 -3.541456,-1.111594 -5.269688,-1.795449 -0.582411,-0.230457 -1.160608,-0.472072 -1.732391,-0.727757 -0.552984,-0.24728 -1.076375,-0.561343 -1.641004,-0.780733 -0.155056,-0.06025 0.266629,0.199004 0.399942,0.298506 -0.492279,-0.287862 -0.992315,-0.562851 -1.476836,-0.863587 -1.991291,-1.235956 -3.837239,-2.693591 -5.614048,-4.216696 -1.123347,-1.027899 -2.253962,-2.072487 -3.09086,-3.357216 0,0 -0.332181,-0.149638 -0.332181,-0.149638 z" />
    <path
       style="fill:#999999;stroke-width:0.264583"
       id="path958"
       d="m 70.943125,53.249187 c 0.401992,0.982067 1.308883,1.58982 2.159781,2.157952 0.503965,0.336489 1.021313,0.653262 1.546143,0.956175 1.084487,0.625928 2.187154,1.219817 3.28073,1.829724 3.513285,1.626711 7.219569,2.871874 10.99788,3.722147 0.673549,0.151575 1.354484,0.268245 2.031727,0.402371 2.721919,-0.01138 0.661715,-0.05223 3.642556,0.159594 0.616259,0.04379 1.233657,0.06978 1.850482,0.104674 0,0 -0.06445,-0.04739 -0.06445,-0.04739 v 0 C 94.16317,62.408186 91.962014,62.2691 89.846191,61.471072 85.286815,60.361065 80.727078,59.114179 76.496647,57.039573 c -0.766831,-0.121404 -0.219736,-0.01302 -1.746615,-0.983961 -0.477657,-0.303742 -0.947028,-0.620591 -1.411615,-0.94397 -0.712693,-0.496075 -1.462255,-0.995963 -2.007005,-1.685809 0,0 -0.388287,-0.176646 -0.388287,-0.176646 z" />
    <path
       style="fill:#999999;stroke-width:0.264583"
       id="path960"
       d="m 89.762963,62.222791 c 1.525508,0.353984 3.084055,0.379746 4.642078,0.357376 0.558276,-0.008 1.117507,-0.0083 1.67423,-0.05072 0.545433,-0.04152 1.085808,-0.133818 1.628711,-0.200728 1.018921,-0.165325 1.979549,-0.553548 2.978858,-0.792583 0.52914,-0.126569 1.06922,-0.202367 1.60172,-0.31396 0.46296,-0.09702 0.92291,-0.207876 1.38436,-0.311812 0,0 -0.0657,-0.04558 -0.0657,-0.04558 v 0 c -0.61175,0.137718 -2.41902,0.558162 -2.98578,0.625327 -1.137534,0.134802 -2.791053,0.107593 -3.926086,0.111924 -0.419643,0.0013 -3.141316,0.01331 -3.624038,0.0053 -0.976273,-0.01606 -1.950498,-0.112263 -2.926892,-0.116512 -0.428951,-0.0019 -0.855605,0.0863 -1.28569,0.05494 0,0 0.904269,0.676979 0.904269,0.676979 z" />
    <path
       style="fill:#999999;stroke-width:0.264583"
       id="path962"
       d="m 96.523375,62.996693 c 1.904518,0.06549 3.789155,-0.309761 5.655575,-0.638352 1.41689,-0.332455 2.89867,-0.55748 4.23486,-1.168464 5.58242,-2.552615 -3.37461,1.136952 2.92145,-1.398029 0,0 -0.0665,-0.04451 -0.0665,-0.04451 v 0 c -0.53143,0.213882 -1.04302,0.485823 -1.59427,0.641641 -0.62528,0.176745 -1.2806,0.222153 -1.91747,0.351007 -1.49962,0.303409 -2.97194,0.73179 -4.48222,0.984782 -1.21216,0.204759 -2.423881,0.382109 -3.643211,0.538298 -0.47594,0.06097 -0.954487,0.101703 -1.429348,0.170584 -0.122383,0.01775 -0.242488,0.04868 -0.36373,0.07302 0,0 0.684834,0.490024 0.684834,0.490024 z" />
    <path
       style="fill:#999999;stroke-width:0.264583"
       id="path964"
       d="m 98.129988,62.913556 c 0.257469,0.216109 -1.025525,-0.462976 -0.695102,-0.300731 0.91803,0.450781 0.585411,0.489378 1.244319,0.302935 1.638555,-0.501486 3.316565,-0.876478 4.948325,-1.40093 0.61925,-0.199027 1.22828,-0.428535 1.84242,-0.642802 2.84121,-1.087387 5.47652,-2.632845 8.14061,-4.08536 0,0 -0.067,-0.04373 -0.067,-0.04373 v 0 c -0.69414,0.378383 -1.37054,0.791307 -2.08242,1.135152 -0.76092,0.367535 -1.53701,0.707371 -2.33102,0.99658 -0.9641,0.351162 -3.61417,1.056346 -4.63019,1.334722 -1.70564,0.430948 -2.0222,0.51911 -3.62935,0.897625 -1.003522,0.236353 -2.071759,0.390642 -3.03431,0.777486 -0.146392,0.05883 -0.281099,0.143362 -0.421651,0.215043 -0.07252,0.0785 -0.170394,0.139613 -0.217577,0.235514 -0.262456,0.533458 0.882232,0.894191 1.375439,0.913839 0,0 -0.442503,-0.335338 -0.442503,-0.335338 z" />
    <path
       style="fill:#999999;stroke-width:0.264583"
       id="path966"
       d="m 99.858077,61.274382 c -0.138686,0.03134 -0.219797,0.06243 -0.366868,0.04008 -0.06225,-0.0095 -0.231495,-0.09418 -0.179589,-0.05854 1.00348,0.688912 0.86554,0.618784 1.90865,0.407416 1.83126,-0.708096 3.62211,-1.546685 5.34309,-2.49247 0.64845,-0.356359 1.30063,-0.710104 1.9153,-1.121994 0.62775,-0.420651 1.20353,-0.914104 1.80529,-1.371156 2.71123,-1.66002 1.39874,-0.805987 3.94149,-2.555893 0,0 -0.0674,-0.04304 -0.0674,-0.04304 v 0 c -2.54245,1.749427 -1.23012,0.895633 -3.94104,2.555179 -3.48277,1.327671 -6.96409,2.665857 -10.412243,4.079965 -0.137039,0.09563 -0.283403,0.179117 -0.411112,0.286888 -0.05027,0.04242 -0.160465,0.109405 -0.117079,0.158842 0.209445,0.238654 0.498875,0.39366 0.760224,0.573998 0.0369,0.02548 -0.07814,-0.0617 -0.08252,-0.106355 -0.008,-0.08153 0.16204,-0.139692 0.19474,-0.155927 0,0 -0.290908,-0.196993 -0.290908,-0.196993 z" />
    <path
       style="fill:#999999;stroke-width:0.264583"
       id="path968"
       d="m 105.84834,60.29431 c 1.6458,-0.792136 3.00809,-2.050028 4.38019,-3.231925 1.51761,-1.318421 3.07776,-2.6011 4.47102,-4.055261 1.40598,-1.467434 2.70921,-3.109536 3.95459,-4.714009 1.5369,-2.071669 3.15923,-4.090953 4.32657,-6.402367 0.0622,-0.103203 0.52454,-1.261297 0.32869,-1.378399 -0.0697,-0.04165 -0.152,-0.05694 -0.22801,-0.08541 -0.59709,0.364585 -0.95481,1.466466 -1.21858,2.067452 -0.96951,2.266592 -2.16499,4.428995 -3.5784,6.449179 -0.38807,0.554669 -0.7993,1.092774 -1.19894,1.639162 -2.33365,2.998235 -5.27432,5.405739 -8.29021,7.678412 -0.16247,0.117782 -1.52251,1.111933 -1.80092,1.286687 -0.18056,0.113337 -0.37044,0.212895 -0.56597,0.297842 -0.0918,0.03986 -0.38321,0.03605 -0.29079,0.07437 0.66618,0.276154 0.76897,-0.163438 1.20773,-0.613828 2.87566,-2.938674 5.57762,-6.03885 8.17709,-9.223033 0.48049,-0.606484 0.96098,-1.212969 1.44148,-1.819455 0,0 -0.0687,-0.04101 -0.0687,-0.04101 v 0 c -0.48047,0.606452 -0.96095,1.212903 -1.44142,1.819355 -2.61309,3.200791 -5.26855,6.404451 -8.47526,9.037454 -0.28264,0.237279 -1.14628,0.565817 -0.52044,1.050023 0.0598,0.04626 0.0987,-0.115123 0.1551,-0.165452 0.698,-0.622847 1.52354,-1.072679 2.24971,-1.660199 3.02681,-2.281116 5.93812,-4.726144 8.43001,-7.597391 0.44242,-0.521949 0.90955,-1.023922 1.32726,-1.56585 1.50515,-1.952762 2.64068,-4.179517 3.64973,-6.41773 0.22752,-0.54914 0.44192,-1.104157 0.67973,-1.648907 0.0168,-0.0384 0.16336,-0.382583 0.21389,-0.453438 0.0218,-0.03055 0.0575,-0.04827 0.0862,-0.0724 -0.0231,-0.03063 -0.10358,-0.07489 -0.0692,-0.09187 0.0785,-0.03879 0.099,0.157914 0.0939,0.245335 -0.0236,0.405831 -0.21101,0.781905 -0.36321,1.149496 -1.16541,2.307793 -2.72953,4.404786 -4.45306,6.323771 -1.04502,1.081593 -1.77042,1.861318 -2.88069,2.889642 -0.54007,0.500205 -1.1029,0.975275 -1.65548,1.461627 -1.52633,1.343374 -3.05939,2.680121 -4.66899,3.924205 -0.51612,0.392483 -1.76404,1.333484 -2.3298,1.789967 -0.33445,0.269848 -0.9459,0.774837 -1.24724,1.130617 -0.15732,0.185746 -0.24951,0.391144 -0.35472,0.603155 0,0 0.52711,0.320188 0.52711,0.320188 z" />
    <path
       style="fill:#999999;stroke-width:0.264583"
       id="path984"
       d="m 95.052104,63.389012 c 0.268324,0.408104 -0.698974,0.05888 -0.539592,0.157374 0.274069,0.169368 0.558192,0.401812 0.880359,0.398955 0.15031,-0.0013 -0.154503,-0.261213 -0.19831,-0.405006 -0.169167,-0.555268 -0.116893,-0.840899 -0.113163,-1.432975 0.158499,-1.615186 0.768112,-3.157937 1.707267,-4.480719 0.186573,-0.262784 0.402132,-0.50374 0.603197,-0.75561 0.773962,-0.837224 1.679768,-1.574232 2.762748,-1.970895 0.61521,-0.225332 0.88762,-0.235302 1.52312,-0.332044 1.3879,-0.141359 2.41468,0.237053 3.59319,0.913445 -0.1879,-0.09791 -0.46093,-0.479002 -0.56371,-0.293719 -0.10354,0.186668 0.34887,0.246382 0.51705,0.377846 0.7321,0.572264 1.3396,1.227396 1.90421,1.961353 0.71279,1.049258 1.21213,2.234883 1.29315,3.51277 0.0188,0.296646 -0.003,0.594474 -0.004,0.891712 -0.13734,1.568931 -0.68573,3.062467 -1.6597,4.308732 -0.19948,0.255256 -0.43029,0.484407 -0.64544,0.726612 -0.96375,0.890875 -2.09075,1.632095 -3.41462,1.835298 -1.05116,0.16134 -1.30565,0.04215 -2.36843,-0.108577 -1.879483,-0.49634 -3.098477,-0.98438 -4.278431,-2.601709 -0.22946,-0.314513 -0.399161,-0.668544 -0.598739,-1.002819 -0.630097,-1.410843 -0.883721,-2.941693 -0.620644,-4.474379 0.149728,-0.872291 0.312156,-1.150554 0.639427,-1.958403 0.790863,-1.486464 1.988296,-2.716612 3.502202,-3.472067 0.267579,-0.133527 0.550926,-0.232788 0.826389,-0.349183 1.390526,-0.460722 2.878426,-0.545857 4.317586,-0.272143 0.27653,0.05259 0.54715,0.13249 0.82073,0.198737 0.60192,0.20547 0.88133,0.275119 1.44135,0.563644 0.21504,0.110792 0.47864,0.176184 0.62504,0.368761 0.11415,0.150156 -0.51888,-0.416489 -0.51794,-0.227876 10e-4,0.231207 0.35471,0.297477 0.5191,0.460061 0.16123,0.159456 0.30419,0.336391 0.45628,0.504586 0.82653,1.182093 1.25193,2.600429 1.24126,4.044064 -0.002,0.286875 -0.0408,0.572312 -0.0612,0.85847 -0.21022,1.373171 -0.77941,2.672376 -1.56483,3.814865 -0.16598,0.241446 -0.35301,0.467723 -0.52952,0.701583 -0.89455,1.030044 -1.94419,1.959279 -3.23625,2.451274 -0.2296,0.08743 -0.4698,0.143995 -0.7047,0.21599 -0.2403,0.03653 -0.47859,0.09059 -0.72091,0.109583 -1.07573,0.0843 -2.048382,-0.232606 -2.977244,-0.753973 -0.07828,-0.04394 0.167487,0.06468 0.25123,0.09702 -1.373442,-0.961876 -2.447293,-2.264259 -3.063925,-3.829748 -0.135488,-0.343969 -0.230521,-0.702527 -0.345782,-1.053791 -0.412213,-1.749541 -0.42722,-3.612255 0.118997,-5.339294 0.102714,-0.324757 0.247388,-0.634722 0.37108,-0.952082 0.704636,-1.347687 1.722335,-2.530845 3.163668,-3.107258 0.248873,-0.09953 0.51203,-0.158758 0.768046,-0.238139 0.71199,-0.05069 1.38808,-0.38673 2.11326,-0.285488 0.28815,0.04023 0.56199,0.150884 0.84299,0.226328 0,0 -0.0635,-0.0487 -0.0635,-0.0487 v 0 c -0.97431,-0.260639 -2.06,-0.663043 -3.070032,-0.696032 -0.282395,-0.0092 -0.560094,0.075 -0.840142,0.112506 -0.255823,0.08704 -0.519025,0.154829 -0.767467,0.261118 -1.451721,0.621072 -2.449359,1.836443 -3.15192,3.214999 -0.128325,0.320921 -0.280413,0.633333 -0.384979,0.962766 -0.431213,1.358551 -0.495745,2.896116 -0.322895,4.303387 0.04576,0.372581 0.137665,0.738034 0.206497,1.107054 0.269303,0.864298 0.34804,1.25122 0.763627,2.057032 0.597828,1.159174 1.508334,2.115323 2.557626,2.875423 2.037435,1.231868 3.176005,2.18781 5.603905,1.692883 0.23484,-0.07879 0.47561,-0.141716 0.70451,-0.236365 1.28557,-0.531561 2.34714,-1.471303 3.23538,-2.521183 0.18283,-0.234659 0.37732,-0.460682 0.54849,-0.703971 0.81202,-1.154139 1.37385,-2.47636 1.58225,-3.873254 0.0234,-0.290545 0.066,-0.580176 0.0703,-0.87163 0.0212,-1.441281 -0.39569,-2.873325 -1.14872,-4.095105 -0.26447,-0.299098 -0.64366,-0.763788 -0.97613,-0.995669 -1.15557,-0.805937 -2.35342,-1.543463 -3.71703,-1.921169 -0.27539,-0.06264 -0.54808,-0.138581 -0.82617,-0.187923 -1.44793,-0.256921 -2.955,-0.158625 -4.340303,0.337833 -0.703797,0.31976 -0.984985,0.411144 -1.63273,0.857004 -1.13918,0.784125 -2.051561,1.854724 -2.710694,3.063735 -0.331652,0.842195 -0.48442,1.095177 -0.624305,2.005222 -0.239424,1.557639 0.0291,3.115622 0.635868,4.557638 0.195998,0.340273 0.359529,0.701434 0.587994,1.020813 1.12477,1.572355 3.08075,2.677668 4.866664,3.297361 0.407446,0.141378 0.830556,0.232794 1.245826,0.349192 1.10846,0.160441 1.36248,0.284118 2.457,0.119785 1.3557,-0.203549 2.48596,-0.965951 3.46844,-1.879962 0.21774,-0.2461 0.45068,-0.479544 0.65321,-0.738296 0.9906,-1.265521 1.57876,-2.754284 1.71955,-4.353682 0.0121,-0.745223 0.0504,-1.026657 -0.068,-1.759246 -0.15754,-0.974889 -0.59437,-1.866686 -1.12629,-2.688273 -1.10938,-1.481727 -2.30903,-2.461278 -3.9725,-3.325683 -1.19983,-0.665527 -2.21773,-0.999892 -3.61268,-0.822351 -0.62019,0.115853 -0.915905,0.142404 -1.516006,0.376013 -1.084988,0.422362 -1.983547,1.183968 -2.751418,2.041646 -0.203409,0.255683 -0.422984,0.499298 -0.610222,0.767048 -0.934733,1.33667 -1.56079,2.899585 -1.770713,4.514906 -0.03563,0.554305 -0.09827,0.900303 0.0047,1.438243 0.162391,0.848384 1.359773,1.802747 1.970739,0.947283 0,0 -0.953493,-0.56356 -0.953493,-0.56356 z" />
  </g>
  <g
     inkscape:groupmode="layer"
     id="layer3"
     inkscape:label="Слой 3"
     transform="translate(-62.939401,-21.115295)">
    <path
       style="fill:url(#linearGradient6674);fill-opacity:1;stroke:none;stroke-width:0.264999;stroke-dasharray:none;stroke-opacity:1"
       d="m 95.052323,82.520072 2.056612,-7.503306 7.405875,2.640892 -1.96538,7.748997 z"
       id="path2814"
       sodipodi:nodetypes="ccccc" />
    <path
       style="fill:none;fill-opacity:1;stroke:url(#linearGradient15414);stroke-width:0.3;stroke-linecap:round;stroke-dasharray:none;stroke-opacity:1"
       d="m 108.96389,74.466771 -3.82781,-8.963367 -3.52877,7.067803"
       id="path15093"
       sodipodi:nodetypes="ccc" />
    <path
       style="fill:url(#linearGradient13085);fill-opacity:1;stroke:none;stroke-width:0.264999;stroke-dasharray:none;stroke-opacity:1"
       d="m 97.107317,75.018392 4.494983,-2.451966 7.46458,1.892845 -4.60294,3.23414 z"
       id="path2818"
       sodipodi:nodetypes="ccccc" />
    <path
       style="fill:url(#linearGradient13791);fill-opacity:1;stroke:none;stroke-width:0.264999;stroke-dasharray:none;stroke-opacity:1"
       d="m 102.54582,85.408658 4.97053,-3.982627 1.55021,-6.968563 -4.6172,3.236137 z"
       id="path2820"
       sodipodi:nodetypes="ccccc" />
    <path
       style="fill:none;fill-opacity:1;stroke:url(#linearGradient15268);stroke-width:0.3;stroke-linecap:round;stroke-dasharray:none;stroke-opacity:1"
       d="m 97.097527,75.086092 8.017783,-9.586904 -0.68791,12.354067"
       id="path15089"
       sodipodi:nodetypes="ccc" />
    <path
       style="fill:url(#linearGradient15734);fill-opacity:1;stroke:none;stroke-width:0.197;stroke-dasharray:none;stroke-opacity:1"
       d="m 105.17858,66.076926 -1.93612,-1.729429 1.1488,-2.377289 1.84976,1.787673 z"
       id="path2987"
       sodipodi:nodetypes="ccccc" />
    <path
       style="fill:#012236;fill-opacity:1;stroke:none;stroke-width:0.247835;stroke-linecap:round;stroke-dasharray:none;stroke-opacity:1"
       id="path15798"
       sodipodi:type="arc"
       sodipodi:cx="102.26895"
       sodipodi:cy="62.836067"
       sodipodi:rx="0.77758723"
       sodipodi:ry="1.169304"
       sodipodi:start="0.046845629"
       sodipodi:end="6.2831853"
       sodipodi:open="true"
       sodipodi:arc-type="arc"
       d="m 103.04569,62.890824 a 0.77758723,1.169304 0 0 1 -0.80405,1.113826 0.77758723,1.169304 0 0 1 -0.75006,-1.195969 0.77758723,1.169304 0 0 1 0.78648,-1.141838 0.77758723,1.169304 0 0 1 0.76848,1.169224" />
    <path
       style="fill:#012236;fill-opacity:1;stroke:none;stroke-width:0.240303;stroke-linecap:round;stroke-dasharray:none;stroke-opacity:1"
       id="path15800"
       sodipodi:type="arc"
       sodipodi:cx="106.7645"
       sodipodi:cy="62.095978"
       sodipodi:rx="0.73624611"
       sodipodi:ry="1.1610358"
       sodipodi:start="0.046845629"
       sodipodi:end="6.2831853"
       sodipodi:open="true"
       sodipodi:arc-type="arc"
       d="m 107.49994,62.150347 a 0.73624611,1.1610358 0 0 1 -0.7613,1.10595 0.73624611,1.1610358 0 0 1 -0.71018,-1.187511 0.73624611,1.1610358 0 0 1 0.74467,-1.133764 0.73624611,1.1610358 0 0 1 0.72762,1.160956" />
  </g>
</svg>
